<svg xmlns="http://www.w3.org/2000/svg" xmlns:xlink="http://www.w3.org/1999/xlink" width="613.665" height="532.056" viewBox="0 0 613.665 532.056">
  <defs>
    <linearGradient id="linear-gradient" x1="0.878" y1="0.053" x2="0.169" y2="0.94" gradientUnits="objectBoundingBox">
      <stop offset="0" stop-color="#2578fa"/>
      <stop offset="1" stop-color="#27ddf8"/>
    </linearGradient>
    <linearGradient id="linear-gradient-2" x1="0.5" x2="0.5" y2="1" gradientUnits="objectBoundingBox">
      <stop offset="0" stop-color="#2578fa"/>
      <stop offset="0.481" stop-color="#26a9f9"/>
      <stop offset="1" stop-color="#27ddf8"/>
    </linearGradient>
    <linearGradient id="linear-gradient-3" x1="0.5" x2="0.5" y2="1" gradientUnits="objectBoundingBox">
      <stop offset="0" stop-color="#f5f5f5"/>
      <stop offset="1" stop-color="#e3e0ff"/>
    </linearGradient>
  </defs>
  <g id="Group_7322" data-name="Group 7322" transform="translate(47.665 -155.253)">
    <g id="Group_7679" data-name="Group 7679">
      <path id="Path_3164" data-name="Path 3164" d="M2166.74,1424.349a105.88,105.88,0,1,0-105.88-105.88,106.084,106.084,0,0,0,105.88,105.88" transform="translate(-1815.947 -769.594)" fill="#e3e0ff" fill-rule="evenodd"/>
      <path id="Path_3165" data-name="Path 3165" d="M1829.384,832.073c113,0,205.164-92.163,205.164-205.164s-92.163-205.163-205.164-205.163-205.163,92.163-205.163,205.163,92.163,205.164,205.163,205.164" transform="translate(-1536.803 -264.006)" fill="#e3e0ff" fill-rule="evenodd"/>
      <path id="Path_3166" data-name="Path 3166" d="M1467.144,1291.889c86.208,0,156.52-70.312,156.52-156.521s-70.312-156.518-156.52-156.518a155.628,155.628,0,0,0-93.6,31.206v250.627a155.625,155.625,0,0,0,93.6,31.206" transform="translate(1576.136 1648.574) rotate(-180)" fill="#e3e0ff" fill-rule="evenodd"/>
      <path id="Path_3167" data-name="Path 3167" d="M1489.944,756.572c91.024,0,165.264-74.242,165.264-165.266s-74.24-165.266-165.264-165.266a164.744,164.744,0,0,0-116.4,48.141V708.431a164.744,164.744,0,0,0,116.4,48.141" transform="translate(1607.543 915.86) rotate(180)" fill="#e3e0ff" fill-rule="evenodd"/>
      <path id="Path_3168" data-name="Path 3168" d="M2030.643,1805.221l-7.795,4.5-7.8,4.5v-18l7.8,4.5Z" transform="translate(-1786.661 -1142.711)" fill="#e3e0ff" fill-rule="evenodd"/>
      <path id="Path_3169" data-name="Path 3169" d="M2688.826,1407.775l-2.328-8.694-2.331-8.694,8.693,2.329,8.7,2.33-6.364,6.364Z" transform="translate(-2214.429 -883.261)" fill="#e3e0ff" fill-rule="evenodd"/>
      <path id="Path_3170" data-name="Path 3170" d="M2372.283,1866.512a6.606,6.606,0,1,0-6.606-6.606,6.619,6.619,0,0,0,6.606,6.606" transform="translate(-2010.817 -1179.203)" fill="#e3e0ff" fill-rule="evenodd"/>
      <path id="Path_3171" data-name="Path 3171" d="M2662.733,532.053s-11.147,48.193-40.654,66.226-39.342,19.015-44.914,33.768c-5.317,14.068-22.108,86.58-13.573,115.164H2557.6c-6.141-35.062,8.495-90.54,17.13-125.615a67.547,67.547,0,0,0-1.3-11.383c-3.823-15.3-13.478-17.42-40.687-38.758s-32.684-70.5-32.684-70.5c45.035,59.976,72.9,41.075,77.984,109.224,14.275-41.508,39.435-30.57,84.682-78.126" transform="translate(-2096.732 -314.645)" fill="#cfc7ff" fill-rule="evenodd"/>
      <path id="Path_3172" data-name="Path 3172" d="M2415.8,713.008c53.272,24.06,91.7,109.662,107.282,170.761a204.8,204.8,0,0,1-20.315,40.543c-11.8-48.281-51.633-97.273-94.718-121.893,48.942,9.93,93.578,40.511,108.53,89.926-22.7-99.891-93.718-134.609-100.779-179.337" transform="translate(-2037.905 -450.211)" fill="#cfc7ff" fill-rule="evenodd"/>
      <path id="Path_3173" data-name="Path 3173" d="M2397.059,569.664s0-16.02-10.337-25.322-27.392-6.719-27.392-6.719,2.585,28.425,37.729,32.042" transform="translate(-2006.76 -337.875)" fill="#cfc7ff" fill-rule="evenodd"/>
      <path id="Path_3174" data-name="Path 3174" d="M2817.865,852.835s.339-7.442,8.118-13.191a31.116,31.116,0,0,1,15.559-6.089s-1.015,19.618-23.677,19.28" transform="translate(-2299.902 -527.277)" fill="#e3e0ff" fill-rule="evenodd"/>
      <path id="Path_3175" data-name="Path 3175" d="M2493.006,1516.362s.337-7.44,8.116-13.191a31.109,31.109,0,0,1,15.559-6.088s-1.013,19.618-23.675,19.278" transform="translate(-2092.219 -951.472)" fill="#e3e0ff" fill-rule="evenodd"/>
      <path id="Path_3176" data-name="Path 3176" d="M1423.15,664.006s-.34-7.441-8.119-13.192a31.1,31.1,0,0,0-15.556-6.088s1.014,19.617,23.675,19.28" transform="translate(-1393.122 -406.558)" fill="#cfc7ff" fill-rule="evenodd"/>
      <path id="Path_3177" data-name="Path 3177" d="M2705.834,493.118l7.8-4.5,7.795-4.5-7.795-4.5-7.8-4.5v18Z" transform="translate(-2228.281 -298.125)" fill="#e3e0ff" fill-rule="evenodd"/>
      <path id="Path_3178" data-name="Path 3178" d="M1386.566,438.142s.409-8.99,9.807-15.934a37.575,37.575,0,0,1,18.794-7.355s-1.224,23.7-28.6,23.289" transform="translate(-1384.869 -259.6)" fill="#e3e0ff" fill-rule="evenodd"/>
    </g>
    <g id="Group_7678" data-name="Group 7678">
      <g id="Group_7331" data-name="Group 7331" transform="translate(70.061 216.46)">
        <rect id="Rectangle_1236" data-name="Rectangle 1236" width="146.456" height="165.418" transform="translate(0 0)" fill="#f3f7ff"/>
        <g id="Group_7323" data-name="Group 7323" transform="translate(12.93 14.14)">
          <rect id="Rectangle_1237" data-name="Rectangle 1237" width="20.487" height="20.487" fill="#ffd063" opacity="0.1"/>
          <rect id="Rectangle_1238" data-name="Rectangle 1238" width="20.487" height="20.487" transform="translate(0 30.543)" fill="#ffd063" opacity="0.2"/>
          <rect id="Rectangle_1239" data-name="Rectangle 1239" width="20.487" height="20.487" transform="translate(0 61.087)" fill="#ffd063" opacity="0.3"/>
          <rect id="Rectangle_1240" data-name="Rectangle 1240" width="20.487" height="20.487" transform="translate(0 91.63)" fill="#ffd063" opacity="0.5"/>
          <rect id="Rectangle_1241" data-name="Rectangle 1241" width="20.487" height="20.487" transform="translate(0 122.173)" fill="#ffd063" opacity="0.8"/>
        </g>
        <g id="Group_7324" data-name="Group 7324" transform="translate(46.151 14.14)">
          <rect id="Rectangle_1242" data-name="Rectangle 1242" width="20.487" height="20.487" fill="#2578fa" opacity="0.1"/>
          <rect id="Rectangle_1243" data-name="Rectangle 1243" width="20.487" height="20.487" transform="translate(0 30.543)" fill="#2578fa" opacity="0.2"/>
          <rect id="Rectangle_1244" data-name="Rectangle 1244" width="20.487" height="20.487" transform="translate(0 61.087)" fill="#2578fa" opacity="0.4"/>
          <rect id="Rectangle_1245" data-name="Rectangle 1245" width="20.487" height="20.487" transform="translate(0 91.63)" fill="#2578fa" opacity="0.5"/>
          <rect id="Rectangle_1246" data-name="Rectangle 1246" width="20.487" height="20.487" transform="translate(0 122.173)" fill="#2578fa" opacity="0.7"/>
        </g>
        <g id="Group_7325" data-name="Group 7325" transform="translate(79.741 14.14)">
          <rect id="Rectangle_1247" data-name="Rectangle 1247" width="20.487" height="20.487" fill="#7d00ff" opacity="0.1"/>
          <rect id="Rectangle_1248" data-name="Rectangle 1248" width="20.487" height="20.487" transform="translate(0 30.543)" fill="#7d00ff" opacity="0.2"/>
          <rect id="Rectangle_1249" data-name="Rectangle 1249" width="20.487" height="20.487" transform="translate(0 61.087)" fill="#7d00ff" opacity="0.4"/>
          <rect id="Rectangle_1250" data-name="Rectangle 1250" width="20.487" height="20.487" transform="translate(0 91.63)" fill="#7d00ff" opacity="0.5"/>
          <rect id="Rectangle_1251" data-name="Rectangle 1251" width="20.487" height="20.487" transform="translate(0 122.173)" fill="#7d00ff" opacity="0.7"/>
        </g>
        <g id="Group_7326" data-name="Group 7326" transform="translate(109.114 14.14)">
          <rect id="Rectangle_1252" data-name="Rectangle 1252" width="26.177" height="1.789" fill="#6180ce" opacity="0.5"/>
          <rect id="Rectangle_1253" data-name="Rectangle 1253" width="26.177" height="1.789" transform="translate(0 4.134)" fill="#6180ce" opacity="0.5"/>
        </g>
        <g id="Group_7327" data-name="Group 7327" transform="translate(109.114 44.526)">
          <rect id="Rectangle_1254" data-name="Rectangle 1254" width="26.177" height="1.789" fill="#6180ce" opacity="0.5"/>
          <rect id="Rectangle_1255" data-name="Rectangle 1255" width="26.177" height="1.789" transform="translate(0 4.134)" fill="#6180ce" opacity="0.5"/>
        </g>
        <g id="Group_7328" data-name="Group 7328" transform="translate(109.114 74.913)">
          <rect id="Rectangle_1256" data-name="Rectangle 1256" width="26.177" height="1.789" fill="#6180ce" opacity="0.5"/>
          <rect id="Rectangle_1257" data-name="Rectangle 1257" width="26.177" height="1.789" transform="translate(0 4.134)" fill="#6180ce" opacity="0.5"/>
        </g>
        <g id="Group_7329" data-name="Group 7329" transform="translate(109.114 105.299)">
          <rect id="Rectangle_1258" data-name="Rectangle 1258" width="26.177" height="1.789" fill="#6180ce" opacity="0.5"/>
          <rect id="Rectangle_1259" data-name="Rectangle 1259" width="26.177" height="1.789" transform="translate(0 4.134)" fill="#6180ce" opacity="0.5"/>
        </g>
        <g id="Group_7330" data-name="Group 7330" transform="translate(109.114 135.686)">
          <rect id="Rectangle_1260" data-name="Rectangle 1260" width="26.177" height="1.789" fill="#6180ce" opacity="0.5"/>
          <rect id="Rectangle_1261" data-name="Rectangle 1261" width="26.177" height="1.789" transform="translate(0 4.134)" fill="#6180ce" opacity="0.5"/>
        </g>
      </g>
      <g id="Group_7338" data-name="Group 7338" transform="translate(184.715 408.572)">
        <g id="Group_7332" data-name="Group 7332" transform="translate(205.512 215.515)">
          <rect id="Rectangle_1262" data-name="Rectangle 1262" width="4.587" height="16.776" transform="translate(8.218 16.776) rotate(180)" fill="#2a4e96"/>
          <path id="Path_15031" data-name="Path 15031" d="M1872.339,1497.281a5.925,5.925,0,1,0-5.925,5.925A5.925,5.925,0,0,0,1872.339,1497.281Z" transform="translate(-1860.489 -1478.074)" fill="#2a4e96"/>
          <path id="Path_15032" data-name="Path 15032" d="M1872.319,1499.3a3.883,3.883,0,1,0-3.883,3.883A3.883,3.883,0,0,0,1872.319,1499.3Z" transform="translate(-1862.511 -1480.097)" fill="#ff9e55"/>
        </g>
        <g id="Group_7333" data-name="Group 7333" transform="translate(91.614 215.515)">
          <rect id="Rectangle_1263" data-name="Rectangle 1263" width="4.587" height="16.776" transform="translate(8.218 16.776) rotate(180)" fill="#2a4e96"/>
          <path id="Path_15033" data-name="Path 15033" d="M1645.655,1497.281a5.925,5.925,0,1,0-5.924,5.925A5.925,5.925,0,0,0,1645.655,1497.281Z" transform="translate(-1633.806 -1478.074)" fill="#2a4e96"/>
          <path id="Path_15034" data-name="Path 15034" d="M1645.635,1499.3a3.883,3.883,0,1,0-3.882,3.883A3.883,3.883,0,0,0,1645.635,1499.3Z" transform="translate(-1635.827 -1480.097)" fill="#ff9e55"/>
        </g>
        <g id="Group_7334" data-name="Group 7334" transform="translate(16.603 215.515)">
          <rect id="Rectangle_1264" data-name="Rectangle 1264" width="4.587" height="16.776" transform="translate(8.218 16.776) rotate(180)" fill="#2a4e96"/>
          <path id="Path_15035" data-name="Path 15035" d="M1496.365,1497.281a5.925,5.925,0,1,0-5.925,5.925A5.925,5.925,0,0,0,1496.365,1497.281Z" transform="translate(-1484.516 -1478.074)" fill="#2a4e96"/>
          <path id="Path_15036" data-name="Path 15036" d="M1496.345,1499.3a3.883,3.883,0,1,0-3.883,3.883A3.883,3.883,0,0,0,1496.345,1499.3Z" transform="translate(-1486.538 -1480.097)" fill="#ff9e55"/>
        </g>
        <path id="Rectangle_1265" data-name="Rectangle 1265" d="M17.87,0H78.183a17.87,17.87,0,0,1,17.87,17.87V160.186a39.266,39.266,0,0,1-39.266,39.266H17.87A17.87,17.87,0,0,1,0,181.582V17.87A17.87,17.87,0,0,1,17.87,0Z" transform="translate(96.053 226.902) rotate(180)" fill="url(#linear-gradient)"/>
        <path id="Rectangle_1266" data-name="Rectangle 1266" d="M17.355,0H148.7a0,0,0,0,1,0,0V199.453a0,0,0,0,1,0,0H0a0,0,0,0,1,0,0V17.355A17.355,17.355,0,0,1,17.355,0Z" transform="translate(229.211 226.902) rotate(180)" fill="url(#linear-gradient-2)"/>
        <rect id="Rectangle_1267" data-name="Rectangle 1267" width="152.513" height="9.31" transform="translate(180.476 27.449) rotate(180)" fill="#2a4e96"/>
        <rect id="Rectangle_1269" data-name="Rectangle 1269" width="53.418" height="3.799" transform="translate(71.443 44.546) rotate(180)" fill="#0077b5"/>
        <rect id="Rectangle_1270" data-name="Rectangle 1270" width="53.418" height="3.8" transform="translate(71.443 53.833) rotate(180)" fill="#0077b5"/>
        <path id="Path_15037" data-name="Path 15037" d="M1548.286,1054.136h166.806A18.14,18.14,0,0,0,1696.953,1036H1548.286Z" transform="translate(-1499.642 -1035.997)" fill="rgba(37,120,250,0.66)"/>
        <path id="Path_15038" data-name="Path 15038" d="M1470.047,1054.136h86.72A18.139,18.139,0,0,0,1538.628,1036h-50.442a18.139,18.139,0,0,0-18.139,18.139Z" transform="translate(-1460.714 -1035.997)" fill="#2578fa"/>
        <g id="Group_7337" data-name="Group 7337" transform="translate(97.137 27.451)">
          <path id="Path_15039" data-name="Path 15039" d="M1773.381,1090.631l13.712,26.021c2.085,3.957.567,7.166-3.39,7.166H1669.45c-3.958,0-8.856-3.208-10.941-7.166l-13.712-26.021Z" transform="translate(-1644.797 -1090.631)" fill="#17296d"/>
          <path id="Path_15040" data-name="Path 15040" d="M1681.311,1123.818h114.253c3.957,0,5.475-3.208,3.39-7.166l-13.712-26.021H1656.657l13.712,26.021C1672.454,1120.61,1677.353,1123.818,1681.311,1123.818Z" transform="translate(-1650.698 -1090.631)" fill="#2578fa"/>
          <path id="Path_15041" data-name="Path 15041" d="M1703.838,1120.234h34.1l-9.014-17.107h-34.1Z" transform="translate(-1669.688 -1096.848)" fill="#e3e0ff"/>
          <g id="Group_7335" data-name="Group 7335" transform="translate(78.147 7.865)">
            <path id="Path_15042" data-name="Path 15042" d="M1854.183,1108.7a4.7,4.7,0,0,0,3.69,2.416c1.334,0,1.846-1.082,1.143-2.416a4.7,4.7,0,0,0-3.689-2.417C1853.991,1106.285,1853.48,1107.367,1854.183,1108.7Z" transform="translate(-1826.967 -1106.285)" fill="#163560"/>
            <path id="Path_15043" data-name="Path 15043" d="M1827.894,1108.7a4.705,4.705,0,0,0,3.689,2.416c1.335,0,1.847-1.082,1.143-2.416a4.7,4.7,0,0,0-3.689-2.417C1827.7,1106.285,1827.191,1107.367,1827.894,1108.7Z" transform="translate(-1813.886 -1106.285)" fill="#163560"/>
            <path id="Path_15044" data-name="Path 15044" d="M1800.644,1108.7a4.7,4.7,0,0,0,3.69,2.416c1.334,0,1.846-1.082,1.142-2.416a4.7,4.7,0,0,0-3.689-2.417C1800.452,1106.285,1799.941,1107.367,1800.644,1108.7Z" transform="translate(-1800.328 -1106.285)" fill="#163560"/>
            <path id="Path_15045" data-name="Path 15045" d="M1864.488,1128.258a4.7,4.7,0,0,0,3.689,2.417c1.334,0,1.846-1.082,1.143-2.417a4.7,4.7,0,0,0-3.69-2.416C1864.3,1125.842,1863.784,1126.924,1864.488,1128.258Z" transform="translate(-1832.093 -1116.016)" fill="#163560"/>
            <path id="Path_15046" data-name="Path 15046" d="M1838.2,1128.258a4.7,4.7,0,0,0,3.689,2.417c1.334,0,1.847-1.082,1.143-2.417a4.7,4.7,0,0,0-3.689-2.416C1838.008,1125.842,1837.5,1126.924,1838.2,1128.258Z" transform="translate(-1819.013 -1116.016)" fill="#163560"/>
            <path id="Path_15047" data-name="Path 15047" d="M1810.948,1128.258a4.7,4.7,0,0,0,3.69,2.417c1.334,0,1.846-1.082,1.143-2.417a4.705,4.705,0,0,0-3.69-2.416C1810.757,1125.842,1810.245,1126.924,1810.948,1128.258Z" transform="translate(-1805.455 -1116.016)" fill="#163560"/>
          </g>
          <g id="Group_7336" data-name="Group 7336" transform="translate(116.258 5.531)">
            <path id="Path_15048" data-name="Path 15048" d="M1901.771,1102.787a2.236,2.236,0,0,0,1.753,1.148c.635,0,.877-.515.543-1.148a2.234,2.234,0,0,0-1.753-1.148C1901.68,1101.639,1901.438,1102.153,1901.771,1102.787Z" transform="translate(-1888.837 -1101.639)" fill="#163560"/>
            <path id="Path_15049" data-name="Path 15049" d="M1889.278,1102.787a2.236,2.236,0,0,0,1.753,1.148c.634,0,.877-.515.543-1.148a2.235,2.235,0,0,0-1.753-1.148C1889.187,1101.639,1888.944,1102.153,1889.278,1102.787Z" transform="translate(-1882.62 -1101.639)" fill="#163560"/>
            <path id="Path_15050" data-name="Path 15050" d="M1876.326,1102.787a2.237,2.237,0,0,0,1.754,1.148c.635,0,.877-.515.543-1.148a2.236,2.236,0,0,0-1.753-1.148C1876.235,1101.639,1875.992,1102.153,1876.326,1102.787Z" transform="translate(-1876.177 -1101.639)" fill="#163560"/>
            <path id="Path_15051" data-name="Path 15051" d="M1906.668,1112.081a2.237,2.237,0,0,0,1.754,1.148c.634,0,.877-.514.543-1.148a2.236,2.236,0,0,0-1.753-1.148C1906.578,1110.933,1906.334,1111.447,1906.668,1112.081Z" transform="translate(-1891.273 -1106.263)" fill="#163560"/>
            <path id="Path_15052" data-name="Path 15052" d="M1894.175,1112.081a2.236,2.236,0,0,0,1.754,1.148c.634,0,.877-.514.543-1.148a2.236,2.236,0,0,0-1.754-1.148C1894.084,1110.933,1893.84,1111.447,1894.175,1112.081Z" transform="translate(-1885.057 -1106.263)" fill="#163560"/>
            <path id="Path_15053" data-name="Path 15053" d="M1881.224,1112.081a2.236,2.236,0,0,0,1.754,1.148c.634,0,.877-.514.543-1.148a2.235,2.235,0,0,0-1.753-1.148C1881.133,1110.933,1880.89,1111.447,1881.224,1112.081Z" transform="translate(-1878.613 -1106.263)" fill="#163560"/>
          </g>
        </g>
        <path id="Path_15054" data-name="Path 15054" d="M1771.326,1224.539h-81.553a2.821,2.821,0,0,1-2.821-2.821h0a2.821,2.821,0,0,1,2.821-2.821h81.553a2.82,2.82,0,0,1,2.821,2.821h0A2.821,2.821,0,0,1,1771.326,1224.539Z" transform="translate(-1568.634 -1126.998)" fill="#0077b5"/>
        <path id="Path_15055" data-name="Path 15055" d="M1771.326,1250.453h-81.553a2.821,2.821,0,0,1-2.821-2.821h0a2.822,2.822,0,0,1,2.821-2.822h81.553a2.821,2.821,0,0,1,2.821,2.822h0A2.821,2.821,0,0,1,1771.326,1250.453Z" transform="translate(-1568.634 -1139.891)" fill="#0077b5"/>
      </g>
      <g id="Group_7345" data-name="Group 7345" transform="translate(89.729 478.676)">
        <g id="Group_7339" data-name="Group 7339" transform="translate(0.053 0)">
          <rect id="Rectangle_1271" data-name="Rectangle 1271" width="21.017" height="101.495" transform="translate(0 5.477) rotate(-12.136)" fill="#7d00ff"/>
          <path id="Path_15056" data-name="Path 15056" d="M1283.094,1176.579c.286,1.329-4.082,3.4-9.756,4.616s-10.505,1.132-10.791-.2,4.082-3.4,9.756-4.617S1282.808,1175.249,1283.094,1176.579Z" transform="translate(-1262.533 -1175.52)" fill="#5800b3"/>
        </g>
        <g id="Group_7340" data-name="Group 7340" transform="translate(32.731 0.838)">
          <rect id="Rectangle_1272" data-name="Rectangle 1272" width="21.017" height="101.495" transform="matrix(0.953, -0.303, 0.303, 0.953, 0.019, 7.375)" fill="#2578fa"/>
          <path id="Path_15057" data-name="Path 15057" d="M1347.637,1178.2c.481,1.512-3.612,4.165-9.142,5.926s-10.4,1.962-10.885.45,3.612-4.166,9.142-5.927S1347.155,1176.69,1347.637,1178.2Z" transform="translate(-1327.571 -1177.188)" fill="#026fa8"/>
        </g>
        <g id="Group_7341" data-name="Group 7341" transform="translate(111.409 37.954)">
          <rect id="Rectangle_1273" data-name="Rectangle 1273" width="101.495" height="13.742" transform="matrix(0.279, -0.96, 0.96, 0.279, 0, 98.873)" fill="#7d00ff"/>
          <path id="Path_15058" data-name="Path 15058" d="M1553.739,1256.338c-.444,1.524-3.757,1.9-7.4.84s-6.238-3.155-5.8-4.678,3.757-1.9,7.4-.84S1554.181,1254.814,1553.739,1256.338Z" transform="translate(-1512.187 -1251.057)" fill="#5800b3"/>
        </g>
        <g id="Group_7342" data-name="Group 7342" transform="translate(32.732 19.313)">
          <rect id="Rectangle_1274" data-name="Rectangle 1274" width="105.567" height="13.872" transform="translate(0 107.803) rotate(-88.954)" fill="#ffd063"/>
          <path id="Path_15059" data-name="Path 15059" d="M1345.373,1216.578c-.025,1.376-3.15,2.435-6.98,2.365s-6.914-1.243-6.889-2.618,3.15-2.435,6.98-2.365S1345.4,1215.2,1345.373,1216.578Z" transform="translate(-1329.528 -1213.957)" fill="#ebbe55"/>
        </g>
        <g id="Group_7343" data-name="Group 7343" transform="translate(104.313 52.672)">
          <rect id="Rectangle_1275" data-name="Rectangle 1275" width="84.049" height="13.337" transform="translate(0 84.819) rotate(-83.703)" fill="#ffd063"/>
          <path id="Path_15060" data-name="Path 15060" d="M1501.712,1283.184c-.12,1.089-3.186,1.645-6.846,1.241s-6.531-1.614-6.41-2.7,3.185-1.644,6.845-1.24S1501.832,1282.095,1501.712,1283.184Z" transform="translate(-1479.199 -1280.349)" fill="#ecbd50"/>
        </g>
        <g id="Group_7344" data-name="Group 7344" transform="translate(0 84.063)">
          <rect id="Rectangle_1276" data-name="Rectangle 1276" width="105.015" height="86.591" transform="translate(52.51)" fill="#9e61e3"/>
          <rect id="Rectangle_1277" data-name="Rectangle 1277" width="105.015" height="86.591" transform="translate(0.002)" fill="#b06bff"/>
          <path id="Path_15061" data-name="Path 15061" d="M1559.34,1463.507H1542.7l1.466-4.683-1.466-3.346h16.641Z" transform="translate(-1401.876 -1398.875)" fill="#b1a6eb"/>
          <path id="Path_15062" data-name="Path 15062" d="M1454.959,1388.208h-16.641l1.466-4.683-1.466-3.346h16.641Z" transform="translate(-1349.942 -1361.411)" fill="#d0c7fe"/>
          <path id="Path_15063" data-name="Path 15063" d="M1471.437,1380.18h16.641l-1.466,4.682,1.466,3.346h-16.641Z" transform="translate(-1366.42 -1361.411)" fill="#aea2ee"/>
          <path id="Path_15064" data-name="Path 15064" d="M1262.428,1473.307h16.641l-1.466,4.682,1.466,3.346h-16.641Z" transform="translate(-1262.428 -1407.746)" fill="#cfc7ff"/>
          <rect id="Rectangle_1278" data-name="Rectangle 1278" width="30.22" height="11.757" transform="translate(38.54 18.769) rotate(180)" fill="#cfc7ff"/>
        </g>
      </g>
      <g id="Group_7347" data-name="Group 7347" transform="translate(432.377 304.855)">
        <path id="Path_15065" data-name="Path 15065" d="M2024.963,830.466c-6.959-2.311-11.777.605-11.777.605-20.037.823-22.121,24.676-20.6,32.526s3.774,16.184-3.375,27.837c-20.655,33.66,32.692,26.5,32.692,26.5-3.32-23.736,26.422-19.62,25.561-17.025C2085.222,903.846,2040.79,835.721,2024.963,830.466Z" transform="translate(-1964.321 -829.575)" fill="#5800b3"/>
        <path id="Path_15066" data-name="Path 15066" d="M1994.4,993.129a52.523,52.523,0,0,1-5.357,8.1c-4.162,5.212-26.009-7.161-24.127-8.1s12.86-32.567,15.473-36.54,11.523-6.038,11.523-6.038Z" transform="translate(-1954.539 -889.766)" fill="#2578fa"/>
        <path id="Path_15067" data-name="Path 15067" d="M2148.8,1457.228s6.03,5.5,4.853,9.412-6.617,6.516-7.353,11.3-3.676,7.385-6.324,7.385h-12.62s-1.948-3.363,2.757-4.376,6.481-6.63,6.187-11.843a91.846,91.846,0,0,1,.441-12.163l10-2.317Z" transform="translate(-2035.219 -1140.564)" fill="#5800b3"/>
        <path id="Path_15068" data-name="Path 15068" d="M2034.842,1464.458s2.169,23.311-.478,24.614l-33.877-.069s0-3.91,5.441-4.779,15-4.054,16.619-11.15S2034.842,1464.458,2034.842,1464.458Z" transform="translate(-1972.295 -1145.459)" fill="#5800b3"/>
        <path id="Path_15069" data-name="Path 15069" d="M2060.463,1019.938c-6.971-15.634-11.237-20.121-10.423-24.974.606-3.611-1.846-67.338-1.846-67.338-.827-.256-2.484-.486-3.391-.687a8.5,8.5,0,0,1-6.211-5.4,43.359,43.359,0,0,1-2.108-14.378l-.894.176-15.015,2.973s.342,4.725.352,9.177c0,.038,0,.074,0,.111a8.637,8.637,0,0,1-6.233,8.351c-1.9.548-3.546,1.016-3.546,1.016s-5.514,15.741-6.568,31.912,10.027,23.2-.083,55.512C1994.177,1049.39,2064.314,1028.578,2060.463,1019.938Z" transform="translate(-1973.774 -868.177)" fill="#ffb27d"/>
        <path id="Path_15070" data-name="Path 15070" d="M2037.523,910.482s.342,4.725.352,9.177c8.4-.237,12.843-7.9,14.663-12.15Z" transform="translate(-1990.722 -868.351)" fill="#e8945b"/>
        <path id="Path_15071" data-name="Path 15071" d="M2025.513,891.543s19.684-2.8,17.749-15.035-.7-20.83-13.346-19.557-14.347,6.325-14.694,10.565S2020.343,891.957,2025.513,891.543Z" transform="translate(-1979.618 -843.134)" fill="#ffb27d"/>
        <path id="Path_15072" data-name="Path 15072" d="M2026.592,855.956s7.66,13.491,16.248,14.3,11.813-1.973,11.813-1.973a23.656,23.656,0,0,1-9.84-12.584S2029.559,848.481,2026.592,855.956Z" transform="translate(-1985.283 -841.014)" fill="#5800b3"/>
        <path id="Path_15073" data-name="Path 15073" d="M2020.73,859.4s-3.749,2.125-4.926,5.294a20.011,20.011,0,0,0-.866,11.649s-5.6-9.106-1.931-15.348C2016.9,854.377,2020.73,859.4,2020.73,859.4Z" transform="translate(-1977.904 -843.506)" fill="#5800b3"/>
        <path id="Path_15074" data-name="Path 15074" d="M2060.119,976.082a135.116,135.116,0,0,1,0,15.658c-.336,5.662-6.063,13.245-6.875,15.12-2.039,4.7-4.338,5.47-4.338,5.47l-17.787,4.359-6.254,1.531-19.723-5.89s-8.983-25.073-5.376-39.188a108.487,108.487,0,0,1,9.118-23.916s16.094,15.758,37.049-1.336l8.975,17.836Z" transform="translate(-1971.511 -888.443)" fill="#2578fa"/>
        <path id="Path_15075" data-name="Path 15075" d="M2089.007,1020.372c-.336,5.661-7.757,13.046-8.57,14.922-2.039,4.705-4.338,5.47-4.338,5.47l-17.787,4.359-4.745-6.691s28.795-8.008,23.342-33.4Z" transform="translate(-1998.704 -916.876)" fill="#233862"/>
        <path id="Path_15076" data-name="Path 15076" d="M2003.5,1083.717s-9.767,30.4-10.394,40.751,18.67,147.039,19.447,151.808c.731,4.5,6.314,7.361,6.314,7.361a8.444,8.444,0,0,0,6.231.48c5.084-1.435,6.691-3.154,6.691-3.154s7.6-97.485,2.9-132.309a551.664,551.664,0,0,1-4.76-64.938Z" transform="translate(-1968.615 -956.023)" fill="#5800b3"/>
        <path id="Path_15077" data-name="Path 15077" d="M2058.373,1081.912s14.9,19.99,16.288,33.5,2.179,60.979,5.138,74.152,13.831,38.525,13.831,79.613a8.2,8.2,0,0,1-4.619,3.609,38,38,0,0,1-4.063,1.123,6.386,6.386,0,0,1-7.143-3.391c-7.35-14.8-30.764-62.53-31.964-72.438-.85-7.012-8.242-53.417-24.367-80.647-3.871-6.537,2.376-32.535,2.376-32.535Z" transform="translate(-1982.107 -955.124)" fill="#7d00ff"/>
        <path id="Path_15079" data-name="Path 15079" d="M2010.153,1074.376s3.922,3.1,11.711,3.258c9.3.187,32.358-2.371,32.358-2.371a19.066,19.066,0,0,1,.983,5.884s-28.158,7.1-44.472,1.037C2010.733,1082.184,2008.63,1078.225,2010.153,1074.376Z" transform="translate(-1976.829 -951.375)" fill="#233862"/>
        <g id="Group_7346" data-name="Group 7346" transform="translate(38.557 124.667)">
          <path id="Path_15080" data-name="Path 15080" d="M2025.362,1087.3a4.842,4.842,0,1,1,4.246-4.805A4.557,4.557,0,0,1,2025.362,1087.3Zm0-8.2a3.453,3.453,0,1,0,2.838,3.4A3.16,3.16,0,0,0,2025.362,1079.1Z" transform="translate(-2021.116 -1077.691)" fill="#fff"/>
        </g>
        <path id="Path_15081" data-name="Path 15081" d="M2007.523,1065.752l-42.32.4-20.825-48.94,42.32-.4Z" transform="translate(-1944.378 -922.734)" fill="url(#linear-gradient-3)"/>
        <path id="Path_15082" data-name="Path 15082" d="M2037.538,1062.528l-3.1-3.812a10.911,10.911,0,0,0-3.623-2.191c-1.523-.318-4.74-2.173-5.052-1.651s2.471,4.252,2.471,4.252l.142.021c-3.2,2.4-11.262.281-12.258,1.261-1.207,1.189,1.662,3.757,3.2,5.2s5.938,3.847,9.369,2.78c2.508-.78,6.455-1.575,6.455-1.575Z" transform="translate(-1979.927 -941.626)" fill="#ffb27d"/>
        <path id="Path_15083" data-name="Path 15083" d="M1950.445,1032.786s2.66-3.022,4.352-1.572-.443,8.583-2.055,7.858S1949.518,1033.673,1950.445,1032.786Z" transform="translate(-1947.261 -929.704)" fill="#ffb27d"/>
        <path id="Path_15084" data-name="Path 15084" d="M2072.866,947.891s14.112.989,19.521,14.139,15.442,41.188,15.442,44.9-11.075,17.378-54.408,6.815c0,0-1.477-4.16,1.419-6.262,0,0,30.209-9.7,30.158-11.629-.1-3.649-4.083-6.8-20.957-23.683C2059.454,967.585,2072.866,947.891,2072.866,947.891Z" transform="translate(-1998.445 -888.443)" fill="#2578fa"/>
      </g>
    </g>
  </g>
</svg>
