<?xml version="1.0" encoding="utf-8"?>
<!-- Generator: Adobe Illustrator 24.2.3, SVG Export Plug-In . SVG Version: 6.00 Build 0)  -->
<svg version="1.1" id="e3y27wamrteq1" shape-rendering="geometricPrecision" text-rendering="geometricPrecision"
	 xmlns="http://www.w3.org/2000/svg" xmlns:xlink="http://www.w3.org/1999/xlink" x="0px" y="0px" viewBox="0 0 512 512"
	 style="enable-background:new 0 0 512 512;" xml:space="preserve">
<style type="text/css">
	.st0{fill:#E0007E;}
	.st1{fill:#FFEA2D;}
	.st2{fill:#00A8DE;}
	.st3{display:none;fill:#E0007E;}
	.st4{display:none;fill:#FFEA2D;}
	.st5{display:none;fill:#00A8DE;}
	.st6{fill:#24292B;}
</style>
<g id="e3y27wamrteq2">
	<g id="e3y27wamrteq3_to" transform="translate(-0,0.045561)">
		<polygon id="e3y27wamrteq3" class="st0" points="278.2,263.3 278.5,332 338.3,297.3 338.3,228.7 		"/>
	</g>
	<g id="e3y27wamrteq4_to" transform="translate(0.100000,0.176454)">
		<polygon id="e3y27wamrteq4" class="st1" points="278.5,352.6 278.8,420.9 338.2,386.3 338.2,318.1 		"/>
	</g>
	<g id="e3y27wamrteq5_to" transform="translate(0.006884,0.169019)">
		<polygon id="e3y27wamrteq5" class="st2" points="355.4,309.4 355.6,376.5 414.1,342.5 414.1,275.5 		"/>
	</g>
	<polygon id="e3y27wamrteq6" class="st3" points="278.2,263.3 278.5,332 338.3,297.2 338.3,228.7 	"/>
	<polygon id="e3y27wamrteq7" class="st4" points="278.4,352.4 278.7,420.7 338.1,386.2 338.1,318 	"/>
	<polygon id="e3y27wamrteq8" class="st5" points="355.4,309.2 355.6,376.4 414.1,342.4 414.1,275.4 	"/>
	<path id="e3y27wamrteq9" class="st6" d="M162.6,465.2V254.4c0-34.5,18.1-66.5,47.7-84.2l91.7-53.1l-51.8-30.9l-92.7,53.5
		c-30.2,17.6-48.8,49.9-48.8,84.8v153c0,34.8,18.4,67,48.5,84.6L162.6,465.2z"/>
	<path id="e3y27wamrteq10" class="st6" d="M434.5,252.5v87.6c0,8.7-4.6,16.8-12.1,21.2l-158.2,92.1c-1.5,0.9-3.4,0.9-4.9,0
		c-1.5-0.9-2.5-2.5-2.5-4.3V267.4c0-8.7,4.6-16.8,12.1-21.2l197.3-114.4c4.6-2.6,7.4-7.5,7.4-12.7s-2.8-10.1-7.4-12.7l-162-93.2
		C273.8-4.4,236.3-4.3,206,13.3L72.4,91.1c-30.2,17.6-48.8,49.9-48.8,84.8v152.5c0,35.1,18.7,67.5,49.1,85l4.8,2.8V206.7
		c0-34.9,18.6-67.2,48.8-84.8l129-75.1l125.3,72.4l-129,75c-30.2,17.6-48.8,49.9-48.8,84.8v181.2c0,17.5,9.3,33.7,24.5,42.5l4.9,2.9
		c15.2,8.8,34,8.8,49.2-0.1l158.1-92c30.2-17.6,48.8-49.9,48.8-84.8V221.2L434.5,252.5z"/>
</g>
</svg>
