<svg xmlns="http://www.w3.org/2000/svg" xml:space="preserve" baseProfile="basic" viewBox="0 0 675.2 692">
  <path fill="#E3E0FF" d="M309.2 530.5c-50.8 53.1-25.1 141.3 46.3 158.7 71.4 17.5 134.9-48.9 114.3-119.4-14.8-50.6-67.8-79.7-118.4-64.9-16.1 4.6-30.6 13.5-42.2 25.6"/>
  <path fill="#E3E0FF" d="M216.7 312.8C120.2 295.9 26.4 357.6 4.6 454.2c-22.5 99.6 40 198.6 139.6 221.2 93.9 21.3 187.3-33.1 216.6-122.9L216.7 312.8zM432 418.2c-75.1 78.5-37.1 208.8 68.4 234.6 105.5 25.8 199.4-72.3 169-176.5-6.9-23.8-20-45.3-37.9-62.4-56.3-53.9-145.6-52-199.5 4.3"/>
  <path fill="#E3E0FF" d="M188.8 329.3C95.2 393 98.6 494 196.4 555s252.9 58.7 346.5-4.9 90.2-164.7-7.6-225.7-252.9-58.8-346.5 4.9m343.7 343.6 7.8-2.3 7.8-2.3-5.9-5.6-5.9-5.6-1.9 7.9-1.9 7.9zm112.2-34.1c2.4-2.7 6.6-2.9 9.3-.5 2.7 2.4 2.9 6.6.5 9.3-.1.1-.2.2-.2.3-2.6 2.6-6.7 2.5-9.3-.1-2.6-2.4-2.7-6.4-.3-9m15.2.8c1.1-1.4 3.2-1.6 4.6-.4 1.4 1.1 1.6 3.2.4 4.6-.1.1-.2.2-.3.4-1.3 1.2-3.4 1.1-4.6-.3-1.1-1.3-1.1-3.1-.1-4.3z"/>
  <path fill="#FFF" d="m437.2 95.8 7.8-2.3 7.8-2.3-5.9-5.6L441 80l-1.9 7.9-1.9 7.9z"/>
  <path fill="#E3E0FF" d="m95.2 219.8 1.9-7.9L99 204l-7.8 2.3-7.8 2.3 5.9 5.6 5.9 5.6zm102.6 444.6-4.2-6.9-4.2-6.9-3.9 7.1-3.9 7.1 8.1-.2 8.1-.2zm445.8-387.8 1.9-7.9 1.9-7.9-7.8 2.3-7.8 2.3 5.9 5.6 5.9 5.6z"/>
  <path fill="#FFF" d="m395 663.7-4.2-6.9-4.2-6.9-3.9 7.1-3.9 7.1 8.1-.2 8.1-.2z"/>
  <path fill="#E3E0FF" d="M380.7 34.6c1.9-14.2.9-32.6-17-34.6 0 0-4.9 21 17 34.6"/>
  <path fill="#D1C8FE" d="M164.3 537s17.5-2.8 28 9.5c0 0-7.7 6-24.3-2.3l-3.7-7.2zm-1.9-.2s-11.2 13.7-5.7 28.9c0 0 9.1-3.6 10.1-22.1l-4.4-6.8zm-10.1-22.5s7-12.8 35.1 5.1c0 0-3.7 8.6-16.1 7.9-12.4-.8-15.7-6.3-19-13zm-1.8-.9s-14.6-1.7-16 31.4c0 0 9.2 1.9 15.8-8.6 6.6-10.5 3.9-16.3.2-22.8zm-8.4-26.4s8.2-22.5 37.9-6.5c0 0-6.8 20.6-34.8 14.1l-3.1-7.6zm-9.2-33.6s15.4-22.7 42.8-1.7c0 0-9.6 21.3-40.4 9.7l-2.4-8zm-3.2-32s18-20.9 45.1 0c0 0-17.1 18.3-45.1 5.3v-5.3zm-2.8-31.1s18.2-21.8 44.2-1.2c0 0-20.6 19.3-44.2 6.3v-5.1zm1.6-27.6s19.2-28.1 43.5-9c0 0-20.6 24.1-43.5 14.4v-5.4zm4.4-32.3s20.3-27.8 43.9-6.5c0 0-24.1 24.1-43.9 11.6v-5.1zm6.8-28.8s24.1-26.1 45.1-15.7c0 0-25.1 27.8-46.1 22.7l1-7zm8.4-27.3s27.8-32 43.9-21.3c0 0-20.5 24.8-45.9 27.3l2-6zm12.2-31.7s24.3-26.1 42.1-19.7c0 0-20.8 27.1-45.3 27.8l3.2-8.1z"/>
  <path fill="#6C63FF" d="M171.3 213s26.9-25.1 38.6-20.6c0 0-19.4 27.8-39.7 26.2l1.1-5.6zm10.7-27.4s23.1-29.9 35.8-27.6c0 0-14 26.7-35.8 30.6v-3zm11.7-36.8s20.4-22.9 31.5-22.9c0 0-16.1 30.6-32.3 30.4l.8-7.5zm6.9-24.6 19.8-47.8s1 43.2-22.3 56.6c0 .1 2.5-8.8 2.5-8.8z"/>
  <path fill="#D1C8FE" d="M208.6 71.5s3.3-39.9 1.2-43.1c0 0 14.1 33.1-1.3 60.8l.1-17.7zm-67.3 415s-20.5-12.6-33.8 18.2c0 0 18.2 12 36.1-10.4l-2.3-7.8zm-9-34.4s-25.1-11.4-37.3 20.8c0 0 19.4 13.3 39.6-12.7l-2.3-8.1zm-3.8-28.8s-18-20.9-45.1 0c0 0 17.1 18.3 45.1 5.3v-5.3zm-2.2-33s-18.2-21.8-44.2-1.2c0 0 20.6 19.3 44.2 6.3v-5.1zm2.2-26.8s-12.8-31.5-40.6-17.9c0 0 15 27.9 39.4 23.1l1.2-5.2zm6.1-33.2s-12.7-32-40.9-17.2c0 0 17.3 29.3 39.6 22.1l1.3-4.9zm7.8-28.5s-5-35-28.4-38.2c0 0 4.9 37 25.2 44.5l3.2-6.3zm6.3-27.4s-1.9-42.2-21.3-43.7c0 0 .6 32.1 19.1 49.7l2.2-6zm13.6-33s-5.8-35.1-24.2-39.4c0 0 2.3 34 22.4 48l1.8-8.6zm11.1-28.1s-.2-36.6-11.4-42c0 0-7 33.1 8.2 46.6l3.2-4.6zm9.5-28.1s-1.6-37.7-13.3-43c0 0-4 29.8 11.5 45.4l1.8-2.4z"/>
  <path fill="#6C63FF" d="M195.3 151.8s-.1-30.6-8.4-37.8c0 0-8.3 33.6 4.1 44l4.3-6.2z"/>
  <path fill="#D1C8FE" d="m199.6 122.7-8.1-51s-11 41.8 8.5 60.2l-.4-9.2zm1.6-50.7s-20.8-34.3-20.4-38.1c0 0 2.2 35.9 28.4 53.8l-8-15.7zm2.4-10.1S184 13.2 175.1 9.2c0 0 28 14.2 30.1 51.3l-1.6 1.4z"/>
  <path fill="#D1C8FE" d="m192.7 156.5-1.3-.4c16.6-53.6 20.7-87.8 11.6-96.3l1-1c9.6 9 5.7 42.8-11.3 97.7z"/>
  <path fill="#D1C8FE" d="m147.1 282-2-.7c1.8-5 3.7-9.9 5.6-14.8 17.3-42.8 32-82.6 41.4-113.1l1.7-.8c-9.4 30.6-23.9 71.9-41.2 114.7-1.8 4.9-3.7 9.8-5.5 14.7z"/>
  <path fill="#D1C8FE" d="M188.9 577.1c-.3-.3-27.1-30.3-45.8-81.5-11-30-17.1-61.5-18.1-93.4-1.3-39.9 7.1-84.4 21.6-124.8l1.6 1.8c-32.4 90.7-19.5 168.5-2.5 215.3 18.5 50.8 45.1 80.4 45.3 80.7l-2.1 1.9z"/>
  <ellipse cx="503.9" cy="654.7" fill="#6C63FF" opacity=".1" rx="22.5" ry="3.8"/>
  <path fill="#5800B3" d="M182.2 75.3h340.4c5.4 0 9.8 4.4 9.8 9.8v511.6c0 5.4-4.4 9.8-9.8 9.8H182.2c-5.4 0-9.8-4.4-9.8-9.8V85.1c0-5.4 4.4-9.8 9.8-9.8z"/>
  <path d="M234.6 120.9h240.1c16.1 0 29.2 13.1 29.2 29.2v46c0 16.1-13.1 29.2-29.2 29.2H234.6c-16.1 0-29.2-13.1-29.2-29.2v-46c0-16.1 13.1-29.2 29.2-29.2z" opacity=".1"/>
  <path fill="#F5F5F5" d="M235.9 123h236.8c15.8 0 28.6 12.7 28.6 28.4v44.2c0 15.7-12.8 28.4-28.6 28.4H235.9c-15.8 0-28.6-12.7-28.6-28.4v-44.2c0-15.7 12.8-28.4 28.6-28.4z"/>
  <path fill="#7D00FF" d="M226.6 268.9h37.8c6 0 10.8 4.8 10.8 10.8v43.9c0 6-4.8 10.8-10.8 10.8h-37.8c-6 0-10.8-4.8-10.8-10.8v-43.9c0-6 4.8-10.8 10.8-10.8z"/>
  <path fill="#7D00FF" d="M299.1 268.9h37.8c6 0 10.8 4.8 10.8 10.8v43.9c0 6-4.8 10.8-10.8 10.8h-37.8c-6 0-10.8-4.8-10.8-10.8v-43.9c0-6 4.9-10.8 10.8-10.8z"/>
  <path fill="#7D00FF" d="M371.7 268.9h37.8c6 0 10.8 4.8 10.8 10.8v43.9c0 6-4.8 10.8-10.8 10.8h-37.8c-6 0-10.8-4.8-10.8-10.8v-43.9c0-6 4.8-10.8 10.8-10.8z"/>
  <path d="M459.4 270.2h7.5c14.3 0 25.9 11.6 25.9 25.9v13.6c0 14.3-11.6 25.9-25.9 25.9h-7.5c-14.3 0-25.9-11.6-25.9-25.9v-13.6c0-14.3 11.6-25.9 25.9-25.9z" opacity=".1"/>
  <path fill="#7D00FF" d="M444.3 268.9H482c6 0 10.8 4.8 10.8 10.8v43.9c0 6-4.8 10.8-10.8 10.8h-37.8c-6 0-10.8-4.8-10.8-10.8v-43.9c.1-6 4.9-10.8 10.9-10.8z"/>
  <linearGradient id="calculatorLinearGradientA" x1="-334.756" x2="-334.756" y1="449.758" y2="448.758" gradientTransform="matrix(59.37 0 0 -65.46 20337.639 29710.01)" gradientUnits="userSpaceOnUse">
    <stop offset="0" stop-color="#27ddf8"/>
    <stop offset="1" stop-color="#7367f0"/>
  </linearGradient>
  <path fill="url(#calculatorLinearGradientA)" id="calculatorCalculateButton" d="M444.3 268.9H482c6 0 10.8 4.8 10.8 10.8v43.9c0 6-4.8 10.8-10.8 10.8h-37.8c-6 0-10.8-4.8-10.8-10.8v-43.9c.1-6 4.9-10.8 10.9-10.8z"/>
  <path fill="#7D00FF" d="M226.6 340.9h37.8c6 0 10.8 4.8 10.8 10.8v43.9c0 6-4.8 10.8-10.8 10.8h-37.8c-6 0-10.8-4.8-10.8-10.8v-43.9c0-6 4.8-10.8 10.8-10.8z"/>
  <path fill="#7D00FF" d="M299.1 340.9h37.8c6 0 10.8 4.8 10.8 10.8v43.9c0 6-4.8 10.8-10.8 10.8h-37.8c-6 0-10.8-4.8-10.8-10.8v-43.9c0-6 4.9-10.8 10.8-10.8z"/>
  <path fill="#7D00FF" d="M371.7 340.9h37.8c6 0 10.8 4.8 10.8 10.8v43.9c0 6-4.8 10.8-10.8 10.8h-37.8c-6 0-10.8-4.8-10.8-10.8v-43.9c0-6 4.8-10.8 10.8-10.8z"/>
  <path fill="#7D00FF" d="M226.6 420.4h37.8c6 0 10.8 4.8 10.8 10.8V475c0 6-4.8 10.8-10.8 10.8h-37.8c-6 0-10.8-4.8-10.8-10.8v-43.9c0-5.9 4.8-10.7 10.8-10.7z"/>
  <path fill="#7D00FF" d="M299.1 420.4h37.8c6 0 10.8 4.8 10.8 10.8V475c0 6-4.8 10.8-10.8 10.8h-37.8c-6 0-10.8-4.8-10.8-10.8v-43.9c0-5.9 4.9-10.7 10.8-10.7z"/>
  <path fill="#7D00FF" d="M371.7 420.4h37.8c6 0 10.8 4.8 10.8 10.8V475c0 6-4.8 10.8-10.8 10.8h-37.8c-6 0-10.8-4.8-10.8-10.8v-43.9c0-5.9 4.8-10.7 10.8-10.7z"/>
  <path fill="#7D00FF" d="M371.7 499.8h37.8c6 0 10.8 4.8 10.8 10.8v43.9c0 6-4.8 10.8-10.8 10.8h-37.8c-6 0-10.8-4.8-10.8-10.8v-43.9c0-5.9 4.8-10.8 10.8-10.8z"/>
  <path d="M459.4 342.3h7.5c14.3 0 25.9 11.6 25.9 25.9v13.6c0 14.3-11.6 25.9-25.9 25.9h-7.5c-14.3 0-25.9-11.6-25.9-25.9v-13.6c0-14.3 11.6-25.9 25.9-25.9z" opacity=".1"/>
  <path fill="#6C63FF" d="M444.8 340.9h36.8c6.2 0 11.3 5.1 11.3 11.3V395c0 6.2-5.1 11.3-11.3 11.3h-36.8c-6.2 0-11.3-5.1-11.3-11.3v-42.9c0-6.2 5-11.2 11.3-11.2z"/>
  <linearGradient id="calculatorLinearGradientB" x1="-334.756" x2="-334.756" y1="449.758" y2="448.758" gradientTransform="matrix(59.37 0 0 -65.46 20337.639 29782.02)" gradientUnits="userSpaceOnUse">
    <stop offset="0" stop-color="#27ddf8"/>
    <stop offset="1" stop-color="#7367f0"/>
  </linearGradient>
  <path fill="url(#calculatorLinearGradientB)" d="M444.8 340.9h36.8c6.2 0 11.3 5.1 11.3 11.3V395c0 6.2-5.1 11.3-11.3 11.3h-36.8c-6.2 0-11.3-5.1-11.3-11.3v-42.9c0-6.2 5-11.2 11.3-11.2z"/>
  <path fill="#7D00FF" d="M225.8 499.8h111.8c5.5 0 10 4.5 10 10v45.4c0 5.5-4.5 10-10 10H225.8c-5.5 0-10-4.5-10-10v-45.4c0-5.5 4.5-10 10-10z"/>
  <path fill="#7D00FF" d="M444.6 420.4h36.5c6.4 0 11.7 5.2 11.7 11.7v121.6c0 6.4-5.2 11.7-11.7 11.7h-36.5c-6.4 0-11.7-5.2-11.7-11.7V432c.1-6.4 5.3-11.6 11.7-11.6z"/>
  <path fill="#6C63FF" d="M462.1 206.3h26v2.8h-26v-2.8zm-38 0h26v2.8h-26v-2.8zm-38.1 0h26v2.8h-26v-2.8zm-38 0h26v2.8h-26v-2.8z"/>
  <linearGradient id="calculatorLinearGradientC" x1="-338.182" x2="-338.182" y1="446.32" y2="446.386" gradientTransform="matrix(173.1298 0 0 -334.0771 59178.367 149527.469)" gradientUnits="userSpaceOnUse">
    <stop offset="0" stop-color="gray" stop-opacity=".25"/>
    <stop offset=".54" stop-color="gray" stop-opacity=".12"/>
    <stop offset="1" stop-color="gray" stop-opacity=".1"/>
  </linearGradient>
  <path fill="url(#calculatorLinearGradientC)" d="m631.6 413.8-7.4 8.5v-.1c-1.9-2.6 1.8-8.6 1.8-8.6l6.1-13.6c.1 1.4-.2 2.8-.8 4-1.7 2.3 3.1 6 3.1 6-2.6.2-2.8 3.8-2.8 3.8z"/>
  <path fill="#CC818C" d="m629.7 342.9-6.4 9.5s-30.4 14.4-24.6-2.5c2.6-7.5 2.9-12.9 2.4-16.7v-.1c-.6-4.7-2.4-6.8-2.4-6.8s29.6-15 25.2-4.8c-.9 2.1-1.3 4.5-1 6.8.4 3.3 1.4 6.5 3.2 9.4 1 1.9 2.2 3.6 3.6 5.2z"/>
  <path fill="#7D00FF" d="M620.5 531.2s4.4 18.2 2.5 21.2c-1.9 3-1.7 9.7-1.7 9.7s-3.5 26-4.9 27c-1.1 1-2.1 2.1-2.9 3.3 0 0 2.4 5.9 1 8.3-.2.4-.6.7-1 .8-2.3 1-10.6-3.2-15.3-5.8-1.3-.7-1.8-2.3-1.1-3.6.2-.3.4-.5.6-.8-.6-1.2-.3-2.6.8-3.4l1.3-1-.3-.3c-.8-.9-.9-2.2-.3-3.2.8-1.6 1.2-3.5 1.2-5.3.3-6.5 2-9 2-9l-1-29.7c.1-1.6.1-3.2 0-4.8-.2-1.8-3.3-.6-3.8-1.1s-.6-2.9-1.9-3.5c-.6-.5-1-1.3-1.2-2.1-.6-1.9-.7-3.9-.3-5.8.2-.9-.1-1.9-.6-2.7-1.5-2-1-8.8-1-8.8l-2.3-14.3c-3.7 12.1-8.4 26.8-10 27.8-1.5.9-2.4 2.6-2.3 4.3 2.2 2.7 1.3 14.2 1.3 14.2s0 31.9-1.6 34c-1.7 2.9-3.3 5.8-4.6 8.9 0 0 9 8 1.9 12h-.1c-7.2 4-22.2-7.2-22.2-7.2l1.6-1.5.5-.5-1.8-2.6c-1.7-3 5.1-8.7 5.1-8.7s-1.8-7-1.2-7.3c.7-.3 1.2-6.7 1.2-6.7s-1.7-23-1-25.2c.2-1-.1-2.1-.8-2.9-.9-1.3-1.4-2.9-1.3-4.5.1-1.4-.3-2.7-1.1-3.8-2-2.2 0-11.5 0-11.5l1.7-12.4v-19.6c0-3.8.7-7.5 2.1-11.1 1-2.9 1.6-5.9 1.8-8.9.5-6.3 4-12.5 6.3-16 1.2-1.9 2.1-3 2.1-3l53.8-2.1s.8 2.4 1.7 5.7c.2.7.4 1.5.5 2.3 1.1 5.1 1.8 11.5-.5 15.1-.3.5-.6 1-.8 1.5-3.1 6.5-1 14.7-1 14.7s-2.7 18.5-3.9 21.5c-.8 2.1-.1 5.1.5 6.6.3.7.4 1.5.4 2.3v6.6s1.3 5.5.7 7c-.7 1.8 1.2 5.9 1.2 5.9z"/>
  <path d="M622.9 465.8c-.3.5-.6 1-.8 1.5l-3-.2c.3-1.5-1.8-16.1-1.8-16.1l6.1-.3c1.1 5.2 1.8 11.5-.5 15.1z" opacity=".1"/>
  <path fill="#444053" d="M623.4 465.3c-.3.5-.6 1-.8 1.5l-3-.2c.3-1.5-1.8-16.1-1.8-16.1l6.1-.3c1.1 5.2 1.8 11.5-.5 15.1z"/>
  <path fill="#5800B3" d="M623.4 465.3c-.3.5-.6 1-.8 1.5l-3-.2c.3-1.5-1.8-16.1-1.8-16.1l6.1-.3c1.1 5.2 1.8 11.5-.5 15.1z"/>
  <path d="M614.5 600.8c-.2.4-.6.7-1 .8-2.3 1-10.6-3.2-15.3-5.8-.6-.3-1-.9-1.3-1.5 2.7-.5 4.5 2.5 4.5 2.5 1.9-1.2 4.3-.6 5.5 1.3v.1c2.3 3.4 7.3 2 7.3 2l.3.6z" opacity=".1"/>
  <path fill="#5800B3" d="M615.9 611c-.5 1.5-4.3 1.5-4.3 1.5-3.3.9-6.6 2.1-9.8 3.4-1.5.9-3.4 1.1-5.1.7-6.9 1.6-15.9-1.2-18.5-1.7-2.7-.5-3.7-4-.4-4.7.4-.1.8-.2 1.2-.4 1.7-.7 3.1-1.9 4.2-3.3 2.3-2.1 4.6-4.2 7.1-6.1 1.7-1.3 3.2-2.8 4.4-4.5 4-3.5 6.8 1.3 6.8 1.3 1.9-1.2 4.3-.6 5.5 1.3v.1c2.3 3.4 7.3 2 7.3 2s.9 2.3 1.3 3.9c.1.4.2.9.3 1.5.3 1.7.3 3.4 0 5z"/>
  <circle cx="604.4" cy="600" r=".5" fill="#575988"/>
  <circle cx="600.4" cy="603.7" r=".5" fill="#575988"/>
  <circle cx="596.4" cy="607" r=".5" fill="#575988"/>
  <circle cx="598.5" cy="605.5" r=".5" fill="#575988"/>
  <circle cx="602.5" cy="601.8" r=".5" fill="#575988"/>
  <path fill="#DCE6F2" d="M615.9 611c-.5 1.5-4.3 1.5-4.3 1.5-3.3.9-6.6 2.1-9.8 3.4-1.5.9-3.4 1.2-5.1.7-6.9 1.6-15.9-1.2-18.5-1.7-2.7-.5-3.7-4-.4-4.7.4-.1.8-.2 1.2-.4 2.9 1 6 1.6 9.1 1.7 6.8.3 12.3 0 12.3 0l6.9-2.2c1.3-.8 2.8-1.3 4.3-1.5 1.5-.3 3-.9 4.3-1.8.3 1.7.3 3.4 0 5z"/>
  <path fill="#575988" d="M598.7 615.4c-.4 0-.8 0-1.2-.1l.1-.5c1.4.2 2.9 0 4.2-.6.6-.2 1.2-.5 1.8-.8.7-.4 1.4-.7 2.2-1l.7-.2c.4-.1.8-.3 1.1-.4l.6-.3c.5-.3 1-.5 1.5-.6.3 0 .6-.1.8-.1.3 0 .5 0 .8-.1.5-.1 1-.3 1.5-.5.5-.3 1-.4 1.6-.6h.4c.4 0 .8-.2 1.1-.4l.4.3c-.4.3-.9.5-1.4.5l-.4.1c-.5.1-1 .3-1.5.5s-1 .4-1.6.6c-.3.1-.6.1-.8.1-.3 0-.5 0-.8.1-.5.1-1 .3-1.5.6l-.6.3-1.2.4-.7.2c-.7.3-1.5.6-2.2.9-.7.3-1.2.6-1.9.8-.8.5-1.9.7-3 .8z" opacity=".5"/>
  <path d="M600.3 532.4s3.5-5 9.5-5c2.9.1 5.7-.1 8.5-.7 0 0-3.8 2.3-6.5 2.5-2.6.4-11.5 3.3-11.5 3.2zm2 1.2s3.2-2.2 5-2.3c1.8-.1 3.3-.3 3.3-.3-.8.6-1.8 1-2.8 1.3-1.5.6-5.5 1.3-5.5 1.3zm.7 1.5s4.8.4 4.8 1.7m-49.1-72.1c.3 0 4.5-4.4 4.8-6.1.2-1.1.9-2.1 1.8-2.7 0 0 2.7 1.1.3 4.4-1.7 2.1-4.2 3.7-6.9 4.4zm65.2-143.1c-1 2.3-1.8 2.5-1.7 4.6-1.1 1.2-2.4 2.2-3.8 3-3 1.8-6.3 5.3-10 5.3-2.5 0-5-.5-7.3-1.4-.6-4.7-2.4-6.8-2.4-6.8s29.6-15 25.2-4.7z" opacity=".1"/>
  <path fill="#CC818C" d="M628.4 313.6c0 15.3-16.7 24.9-30 17.2-9.5-5.4-12.8-17.5-7.4-27 1.8-3.1 4.3-5.7 7.4-7.4 3.1-1.7 6.5-2.7 10-2.7 11 0 20 8.9 20 19.9z"/>
  <path d="m629.7 342.9-6.4 9.5s-30.4 14.4-24.6-2.5c2.6-7.5 2.9-12.9 2.4-16.7.4 1.3.6 2.5.6 3.8.1 2.6.2 5.9 6.7 7 6.6 1.3 13.4-1.1 17.7-6.2 1 1.8 2.2 3.5 3.6 5.1z" opacity=".1"/>
  <path d="M623.4 448c-13 5.6-57.9.8-57.9.8.1-.5.2-1 .2-1.5l2.1-3 53.8-2.1c0 .1.9 2.5 1.8 5.8z" opacity=".1"/>
  <g fill="#2578FA">
    <path d="M601.1 333.7z"/>
    <path d="m 642.5 350.6 l -9 -7.9 s -5 -4.3 -6.5 -4.6 c -1.5 -0.3 -0.9 0 -0.9 0 s -5.8 8.5 -17.8 6.5 c -6.5 -1.1 -6.6 -4.4 -6.7 -7 c 0 -1.3 -0.2 -2.6 -0.6 -3.9 l -6 2.5 h -7 c -1.9 8.1 -10.9 16.1 -19.8 24.2 c 3.7 0.4 3 26.2 1.4 30.4 c -1.7 4.3 -4.3 35 -4.3 35 s -2.5 6.5 0.1 11 c 0 0 0.6 9.3 0 10.9 c 0 0 45.2 4.8 58 -0.9 c 0 0 1.9 -20.8 0 -23.4 c -1.9 -2.6 1.8 -8.5 1.8 -8.5 l 8.1 -17.9 l 19.7 -19.6 c 0 0.1 3 -16.3 -10.5 -26.8 z"/>
  </g>
  <path d="M592.5 410.9s7.2-3.4 13.6-2.4 19.7-7.4 19.7-7.4-27.8 1.1-33.3 9.8z" opacity=".1"/>
  <path d="M595.1 431.3s13.1.9 15.9-1.9c2.8-2.8 2.8-4.4 2.8-4.4l-18.7 6.3z" opacity=".1"/>
  <path d="M628.4 374.6s-11.1 13 2.4 18.6l-2.4-18.6z" opacity=".1"/>
	<g id="calculatorAnimatedHand">
		<path fill="#CC818C" d="m501.7 302.5-4 7.8c-1.3-.1-2.5-.4-3.8-.8-3.9-1.1-7.1-3.9-8.8-7.5-3.6-7.9 2.4-13 5.1-14.5 2.8-1.5 5.4-3.2 7.4 1.7 1.3 3.4 2.4 6.8 3.3 10.3.5 1.8.8 3 .8 3z"/>
		<path d="m501.7 302.5-4 7.8c-1.3-.1-2.5-.4-3.8-.8l-.4-.4c1.7.6 7.2-9.8 7.2-9.8l.2.1c.5 1.9.8 3.1.8 3.1z" opacity=".1"/>
		<path fill="#2578FA" d="M595.1 336.3c-1.8 0-3.5-1.1-4.3-2.7-1.4-2.9-6.3 0-6.3 0s-15-1.1-20.6 1.6c0 0-9-3.8-10.2-4-1.3-.3-3.2-1.3-4-1-.9.2-2-1.7-2.7-1.5-.6.2-.9-1.3-2.9-1.8s-2.8.1-5-2.1-20.7-11.1-20.7-11.1l-8.3-6.8-8.8-7s-5.5 10.4-7.2 9.8l16.8 20s12.1 10.5 20.4 13.9 7.7 4.4 7.7 4.4 25.2 12.8 29.1 12.5H595v-24.2z"/>
		<path d="m568.8 358.1-6-8.7c.1.4 4 8.2 6 8.7z" opacity=".1"/>
		<path d="M562.7 349.4z" opacity=".1"/>
		<path d="M549.1 345.9s10.1 9 12 9.9c0 0-10.5-9.9-12-9.9z" opacity=".1"/>
		<path d="M589.3 337.3s-9.7 14.4-3.4 23.2c0-.1-3.5-10.5 3.4-23.2z" opacity=".1"/>
	</g>
  <path fill="#CC818C" d="m613.8 446.3-3 2.8-.4.4-3.4 3.2c-.2.2-.5.4-.7.5-14 9.9-16.8-5.2-16.8-5.2s-6.2 4-7.1.8c-.9-3.3 14.4-7.9 16.7-7.6h.6c1.1-.2 2.2-.6 3.2-1.1l.7-.4c.8-.4 1.5-.9 2.3-1.4l7.9 8z"/>
  <path d="M628.9 313.6c0 7-3.7 13.5-9.8 17.1-.3-.5-.5-1-.7-1.4-.7-1.7-1.2-3.5-1.9-5.1-.8-1.8-1.9-3.5-3.3-4.9-.2-.3-.5-.5-.9-.6-.7-.1-1.3.1-1.8.5-.8.6-1.8 1-2.8 1.2-1 .2-2.1-.1-2.8-.8-.7-1-.8-2.3-.5-3.5.7-2.5 1.1-5.2 1.3-7.8 0-2.6-1-5.5-3.3-6.8-2-1.1-4.6-.8-6.8-1.5-.3-.1-.7-.2-1-.4 10.8-11 29.4-6.2 33.6 8.5.4 1.9.7 3.7.7 5.5z" opacity=".1"/>
  <path fill="#5800B3" d="M593.1 296.5c-.4.2-.8.5-.7.9.1.2.2.4.4.5.9.8 2 1.3 3.2 1.6 2.3.6 4.8.3 6.8 1.5 2.3 1.3 3.3 4.1 3.3 6.8s-.8 5.2-1.3 7.8c-.4 1.2-.2 2.4.5 3.5.7.7 1.8 1 2.8.8 1-.2 1.9-.6 2.8-1.2.5-.4 1.2-.6 1.8-.5.3.1.7.3.9.6 1.4 1.4 2.5 3.1 3.3 4.9.7 1.7 1.2 3.4 1.9 5.1.6 1.7 1.8 3.2 3.3 4.1 1.6 1 3.7.8 5-.5 1.2-1.4 1.1-3.2 1.7-4.9 1-2.8 3.8-4.6 5.5-7.1 2-2.8 2.5-6.2 3-9.6.2-1 .3-2.1 0-3.2-.2-.7-.5-1.4-.9-2-2-4-1.9-9-5-12.3-2.3-2.4-5.9-3.1-9.2-3.5-3.3-.4-6.8-.6-9.7-2.4-.8-.6-1.7-1.1-2.6-1.4-1-.3-2.1.1-2.6 1 0 .3-.2.5-.3.7-.3.2-.7.2-1 0l-4.4-1.2.5 2.2c-1.6.1-3.2-.2-4.7-.8-.1 1.3 1.3 2.1 1.8 3.3.3 1.1 0 2.3-.8 3-1.4 1.7-3.5 1.4-5.3 2.3z"/>
  <path d="m575.1 595.6-.2 2h-.1c-7.2 4-22.2-7.2-22.2-7.2l1.6-1.5c.5.6.8 1.3.7 2.1l3 .2 3.7 3.9s9.9 1.1 12.6.5h.9z" opacity=".1"/>
  <path fill="#5800B3" d="M573.9 606.5c-4.7 1-21.2 1-21.2 1l-9.2 1.5s-15.9 1.5-17.6-3.4c-1.8-4.9 1.4-4.6 1.4-4.6h.1l6.6-.5s8.3-3.2 11.4-5.4c2.4-1.9 4.7-3.9 6.9-6.1 0 0 2.8-.5 2.7 2.6l3 .2 3.7 3.9s9.9 1.1 12.6.5h.9l-.4 4.8.1.1c.6.8 3.2 4.5-1 5.4z"/>
  <circle cx="556.8" cy="594.4" r=".5" fill="#575988"/>
  <circle cx="544.9" cy="599.5" r=".5" fill="#575988"/>
  <circle cx="538.8" cy="601.3" r=".5" fill="#575988"/>
  <circle cx="548.1" cy="598.5" r=".5" fill="#575988"/>
  <circle cx="541.9" cy="600.4" r=".5" fill="#575988"/>
  <circle cx="551.2" cy="597" r=".5" fill="#575988"/>
  <circle cx="554.3" cy="595.7" r=".5" fill="#575988"/>
  <path fill="#DCE6F2" d="M573.9 606.5c-4.7 1-21.2 1-21.2 1l-9.2 1.5s-15.9 1.5-17.6-3.4c-1.8-4.9 1.4-4.6 1.4-4.6h.1c1 1.3 3 2.8 7 2.8l11.4.5 11.8-.8s11.1-.3 12.9-.7c1.5-.4 3-1 4.4-1.6.6.7 3.2 4.4-1 5.3z"/>
  <path fill="#575988" d="M544.3 607.8c-.6 0-1.3-.1-1.9-.2l.1-.5c1.6.3 3.2.3 4.7-.2.5-.2 1.1-.3 1.7-.5 1-.3 2-.6 3.1-.8 1.7-.2 3.4-.3 5.1-.2h.3c5.1.3 10.1 0 15.1-.7 1.2-.1 2.3-.5 3.2-1.3l.4.4c-1 .8-2.2 1.3-3.5 1.4-5 .7-10.2.9-15.2.7h-.4c-2.7-.3-5.4 0-8 .9-.6.2-1.1.3-1.7.5-.9.4-1.9.5-3 .5z" opacity=".5"/>
  <path d="m613.8 446.3-3 2.8-7.4-9.4c.8-.4 1.5-.9 2.3-1.4l8.1 8z" opacity=".1"/>
  <path fill="#2578FA" d="m647.2 369.5 5.8 8v8.4c1.5 5.8 1.5 11.9 0 17.8l.3 7.8s-2.8 7.1-1.8 8.9c0 0-.5 5.3-7.3 8.9s-14.5 12.2-14.5 12.2-2.9 5.5-10.7 4.3l-7.5 3.1-8.6-10.9 11.6-6.3s4-5.4 6.4-5.1l9.8-11.4s.3-3.6 2.8-3.6c0 0-4.7-3.8-3-6 1.6-2.3.3-12.3.3-12.3l16.4-23.8z"/>
  <path d="M636.4 406s13.2-.3 14.9 3.1c1.6 3.4-10.9-5-14.9-3.1zm-25.9 42.8c0 2.4-1.9 4.3-4.2 4.4h-.3c-2.5 0-4.4-2-4.4-4.5 0-.5.1-.9.2-1.4-2.1-1.7-2.2-4.7-2.2-6.2 1.1-.2 2.2-.6 3.1-1.1.6 1.6 1.3 3.1 2.2 4.4 2.4-.6 4.8.9 5.4 3.3.1.4.2.7.2 1.1z" opacity=".1"/>
  <path fill="#575988" d="M603.2 439s-3 .7-3 1.2-.7 5.4 2.6 7.5c3.3 2 3-2.8 3-2.8s-2.9-4.3-2.6-5.9z"/>
  <ellipse cx="606.5" cy="448.8" fill="#E4AAB4" rx="4.5" ry="4.4"/>
  <circle cx="606.5" cy="448.8" r="3.8" fill="#DCE6F2"/>
  <path d="M589.1 450.5c6.2 4.6 14.3 5.7 21.5 2.8v3.8s-8.1 5.5-15.4 2.2c-7.2-3.4-6.1-8.8-6.1-8.8z" opacity=".1"/>
  <path d="M589.1 449.5c6.2 4.6 14.3 5.7 21.5 2.8v3.8s-8.1 5.5-15.4 2.2c-7.2-3.4-6.1-8.8-6.1-8.8z" opacity=".1"/>
  <path fill="#444053" d="M589.1 449.5c6.2 4.6 14.3 5.7 21.5 2.8v3.8s-8.1 5.5-15.4 2.2c-7.2-3.4-6.1-8.8-6.1-8.8z"/>
  <path fill="#5800B3" d="M589.4 449.5c6.2 4.6 14.4 5.7 21.5 2.8v3.8s-8.1 5.5-15.4 2.2c-7.3-3.4-6.1-8.8-6.1-8.8z"/>
  <path d="M559.5 588.9s12.6 2.3 14.5 2.8c1.8.5-.5 1.4-.5 1.4s-11.5-2.1-14-4.2zm-.3-6.6c.2 0 8.6-2.3 10.4-6.3m1.9-41.6s3.4 4.4 5.6 4.3c2.1-.2-3.7-4.5-5.6-4.3zm1.8 7.3s1.4 3.1 3.5 2.1" opacity=".1"/>
  <path d="m581.3 473 9 23.4s1.3-15.1-1.4-19.6c-1.6-2.6-4.5-4.1-7.6-3.8z" opacity=".05"/>
  <path d="m603.3 287.5-.1-.3-1.4-.4.2.7h1.3zm-4 5.6.2-.1c.8-.8 1.2-2 .8-3-.2-.4-.4-.8-.7-1.1-.7-.1-1.4-.3-2.1-.6-.1 1.2 1.3 2 1.8 3.2.2.5.2 1.1 0 1.6zm23.9 38.5c-1.6-1-2.7-2.4-3.4-4.1-.7-1.7-1.2-3.5-1.9-5.1-.8-1.8-1.9-3.5-3.3-4.9-.2-.3-.5-.5-.9-.6-.7-.1-1.3.1-1.8.5-.8.6-1.8 1-2.8 1.2-1 .2-2.1-.1-2.8-.8-.7-1-.8-2.3-.5-3.5.7-2.5 1.1-5.1 1.3-7.8 0-2.6-1-5.5-3.3-6.8-2-1.1-4.6-.8-6.8-1.5-1.2-.3-2.2-.9-3.2-1.6-.1 0-.1-.1-.2-.2-.2.1-.4.2-.5.3-.4.2-.8.5-.7.9.1.2.2.3.4.5.9.8 2 1.3 3.2 1.6 2.3.6 4.8.3 6.8 1.5 2.3 1.3 3.3 4.1 3.3 6.8s-.8 5.2-1.3 7.8c-.4 1.2-.2 2.4.5 3.5.7.7 1.8 1.1 2.8.8 1-.2 1.9-.6 2.8-1.2.5-.4 1.2-.6 1.8-.5.3.1.7.3.9.6 1.4 1.4 2.5 3.1 3.3 4.9.7 1.6 1.2 3.4 1.9 5.1.6 1.7 1.8 3.2 3.3 4.1 1.6 1 3.7.8 5-.5.3-.4.6-.8.8-1.3-1.4 1.1-3.2 1.2-4.7.3zm7.2-6.3c1.3-1.6 2.9-2.9 4.1-4.6.2-.3.5-.7.7-1-1.6 1.9-3.7 3.4-4.8 5.6z" opacity=".1"/>
  <path fill="#464646" id="calculatorFirstAnimatedNumber" d="M374.6 161.8s0 .2.1.5.1.8.2 1.3.1 1.1.1 1.8v2.1c-.1 4.3-1.1 7.6-3 9.9-1.9 2.3-4.4 3.4-7.6 3.4-.9 0-1.7-.1-2.4-.2s-1.4-.3-2.1-.6l.2 1.5c.2 1.7.4 3.5.5 5.4.1 1.8.2 3.7.3 5.5.1 1.8.1 3.7.2 5.5v5.1h-5.5c0-2.9 0-5.9-.1-8.8s-.2-5.8-.4-8.5c-.2-2.8-.6-5.4-1.1-7.9s-1.1-4.8-1.9-6.9c-.4-1-.8-2-1.2-2.9-.4-.9-.9-1.8-1.5-2.8l4.6-2.9c.3.5.6 1 .8 1.5.2.5.5 1 .7 1.5s.5 1.1.8 1.7.5 1.2.9 1.9c.4 1 .8 1.9 1.3 2.7.4.8.9 1.5 1.4 2 .5.6 1.2 1 1.9 1.3.7.3 1.6.5 2.6.5 1.5 0 2.7-.5 3.4-1.4.3-.4.6-.9.9-1.4.2-.5.4-1.1.5-1.7.1-.6.2-1.2.3-1.9s.1-1.3.1-1.9c0-.8 0-1.6-.1-2.3s-.2-1.4-.3-1.8l5.4-1.2z"/>
  <path fill="#464646" id="calculatorSecondAnimatedNumber" d="M396 203c0-3.6-.1-7.2-.2-10.8s-.4-7-.9-10.3c-.4-3.3-1.1-6.4-1.9-9.2-.8-2.9-1.9-5.4-3.3-7.6l4.6-2.9c1.5 2.4 2.8 5.2 3.8 8.4s1.8 6.8 2.3 10.9c.2 1.7.4 3.5.5 5.4s.3 3.7.3 5.6c.1 1.8.1 3.7.2 5.4v5.1H396z"/>
  <path fill="#464646" id="calculatorThirdAnimatedNumber" d="M439.4 166c-.3.1-.9.3-1.6.6s-1.5.7-2.4 1.1c-.9.5-1.8 1-2.8 1.5s-1.8 1.2-2.6 1.8c-.8.6-1.4 1.2-1.8 1.8-.4.5-.6 1-.6 1.5v.3c.1.6.4 1.1.9 1.5s1.1.7 1.8.9c.7.2 1.5.4 2.4.5s1.8.2 2.7.2c.9 0 1.9.1 2.8.1h2.6l.9 5.5c-.9.4-1.9.8-2.8 1.3s-1.9 1-2.7 1.6c-.9.6-1.7 1.2-2.4 1.8-.7.6-1.3 1.3-1.8 2s-.8 1.4-1 2.1c-.1.4-.1.7-.1 1.1 0 .4 0 .7.1 1.1.3.6.7 1 1.3 1.4.6.4 1.2.6 1.8.8.6.2 1.3.3 2 .4.7.1 1.3.1 1.8.1 1.2 0 2.4-.1 3.7-.4 1.3-.3 2.6-.7 3.9-1.2l2.1 5.2c-1.6.6-3.2 1.1-4.8 1.5-1.6.3-3.2.5-4.8.5-1.2 0-2.4-.1-3.6-.3s-2.4-.6-3.5-1.1-2.1-1.1-2.9-1.9c-.9-.8-1.6-1.7-2.1-2.8-.4-1-.6-2-.6-3 0-.2 0-.7.1-1.4s.3-1.7.9-2.9c.5-1.2 1.2-2.3 2.1-3.4.9-1.1 1.8-2 2.8-2.8-1-.2-2-.5-2.9-.9s-1.9-.8-2.7-1.4c-.8-.6-1.5-1.3-2.1-2.1s-.9-1.7-1.1-2.8c-.1-.4-.1-.8-.1-1.2 0-.8.1-1.6.4-2.4.3-.9.7-1.7 1.4-2.6.6-.9 1.4-1.7 2.3-2.4s1.7-1.4 2.6-1.9c.8-.5 1.7-1 2.5-1.5.9-.5 1.7-.9 2.5-1.2s1.5-.7 2.2-.9 1.2-.5 1.7-.6l1.5 4.9z"/>
  <path fill="#464646" id="calculatorFourthAnimatedNumber" d="m471.5 162 2 2c.8.8 1.6 1.7 2.5 2.6.9 1 1.8 2 2.7 3.1.9 1.1 1.8 2.3 2.7 3.5 4.1 5.7 6.1 10.7 6.1 14.9 0 1.6-.3 3.1-.8 4.7-.5 1.5-1.2 2.9-2.1 4.1-.4.6-1 1.2-1.6 1.8s-1.4 1.2-2.3 1.6c-.9.5-1.9.9-3 1.2s-2.4.5-3.9.5c-2.3 0-4.3-.4-6.1-1.2-1.7-.8-3.2-1.8-4.3-3.1-.8-.9-1.4-1.9-1.9-2.9s-.9-2.1-1.1-3.2c-.3-1.1-.4-2.1-.4-3.1v-1c0-.6 0-1.2.1-1.8.2-1.7.7-3.6 1.4-5.5s1.7-3.9 2.8-5.8c.8-1.3 1.6-2.5 2.5-3.7s1.8-2.2 2.7-3.2l-1.6-1.6 3.6-3.9zm2.2 34.5c2.9 0 5-1 6.4-2.9.7-.9 1.1-1.8 1.4-2.8s.4-1.9.4-2.6c0-1.5-.4-3.2-1.3-5.2-.8-2-2.1-4.1-3.8-6.5-1.2-1.7-2.4-3.2-3.7-4.7-.9.9-1.8 2-2.6 3.2-.9 1.2-1.6 2.4-2.3 3.8-.7 1.3-1.3 2.6-1.8 4-.5 1.3-.8 2.6-1 3.9 0 .3-.1.6-.1 1.1v.8c0 .4.1.9.2 1.6.1.7.4 1.4.7 2.1.3.7.7 1.4 1.3 1.9.7.8 1.6 1.4 2.6 1.8s2.2.5 3.6.5z"/>
</svg>