<svg xmlns="http://www.w3.org/2000/svg" viewBox="0 0 720.8 833.1">
  <defs>
    <radialGradient id="targetRadialGradientA" cx=".5" cy=".5" r=".5">
      <stop offset="0" stop-color="#27ddf8"/>
      <stop offset="1" stop-color="#00c8e6"/>
    </radialGradient>
    <radialGradient id="targetRadialGradientB" cx=".5" cy=".5" r=".5">
      <stop offset="0" stop-color="#27ddf8"/>
      <stop offset="1" stop-color="#00deff"/>
    </radialGradient>
    <radialGradient id="targetRadialGradientC" cx=".5" cy=".5" r=".5">
      <stop offset="0" stop-color="#27ddf8"/>
      <stop offset="1" stop-color="#00ccea"/>
    </radialGradient>
  </defs>
  <path fill="#e3e0ff" d="M116.9 17.5c36.3-53.5 77.8 25 87 107.8s28.9 99.9 86.7 121 77.5 57.7 82.8 122.1S426 496 506.1 503.8c137.5 13.5 27.3 101.4 166.7 160.7l19.6 34.2-7.7 42.8s-51-.5-68.8 21.9S580.4 810 485 792.3s-130.1 51.2-213.6 25-106.8 19.2-174.4-25-86.5-38.7-96.2-152 57.7-211 57.7-301c0-206.1 22-268.3 58.3-321.8Z"/>
  <path fill="#cfc7ff" d="M116.9 741.5s-78.1 10-75.3-68 75.3-76.7 75.3-76.7c35-1 67 16.2 71.7 57.6 0 0 6.6-4.5 14.2-4.7s10.5 3.1 10.5 3.1-.7 7.6-7.3 11.6-9.5 4.4-9.5 4.4 13.2-.2 21 9.2a28.8 28.8 0 0 1 6.6 20.3s8.4-25.3 36.3-31.3 45.2 11.3 45.2 11.3 1.8-7.4 6-11.8 5.8-4.8 5.8-4.8 12.6 5.6 17.6 17.1 46.8 52.4 46.8 52.4l-2.6 10.3ZM296.5 620s2.9-31-21-47.6l-.8-.6-11.4 7.2 6.4-10.5c-19.3-12.4-26.6-11.6-26.6-11.6s-3 53.4 53.4 63"/>
  <path fill="#cfc7ff" d="M205.7 634.7s11.3-1.8 16.6-11.8a25.4 25.4 0 0 0 2-19s-21 11-18.6 30.8m75.7 13.1s-13.6-7.6-25.5-7.3-17.6 6.5-17.6 6.5 10.8 4.3 18 4.4 18.3-.4 25.1-3.6m-122.2-68.6c-2.7-3.5-7.6-8.7-13.7-9-9.3-.4-2.5 9.1 2.6 10 3.9.6 9.7 1.5 12.1 2 1 2.9 1.8 5.9 2.6 8.9-2.8-3.2-8.8-8.9-15.5-8.5-9.3.6-1.5 9.3 3.6 9.6l12.3.8a141.5 141.5 0 0 1 2.8 14.9l.2 1.7c-1.6-3.5-5.9-11.6-13-13.2-9-2-4 8.5.9 10.2l12.2 4.4c1.6 15.7.4 31.4-4.6 45l1.3.4a101 101 0 0 0 5.1-41l9.7-7.7c4-3.2 5.4-14.8-2.5-10-4.8 3-6.8 9-7.6 13.4l-.3-3.4q-.5-4-1.3-7.9l9.6-7.5c4-3.2 5.4-14.8-2.5-10-5.1 3.2-7 9.9-7.7 14.3l-2-8.6 8.7-9c3.6-3.6 3.6-15.3-3.6-9.5-5 3.9-5.9 11.3-6 15.6l-3.1-9.4 8.5-9c3.6-3.7 3.3-15.4-3.9-9.5-4.9 4.1-5.6 11.7-5.6 16q-1.2-3.2-2.7-6.4l6-9.7c2.5-4 .2-14.1-5-7.6-3.6 4.5-2.8 11.3-2 15l-2.7-5.3c-1.8-4-5.4-10.6-11.5-12.3-9-2.6-4.5 8.3.2 10.2l11 4.7q1.4 2.6 2.6 5.3c-2.5-3-6.6-6.8-11.5-7-8.3-.4-2.2 8.1 2.3 8.8l10.8 1.8c1.2 2.8 2.2 5.6 3.2 8.5m45.2-14.9s-13.3-12.8-18.5-26.4-4.5-28.8-4.5-28.8 2.4 6 9.7 11.5c21.3 16 12.3 24.5 13.3 43.7M221.2 751c-13.4-1.1-20.2 0-29.1 10.4 0 0 22 3.5 29.1-10.5m143 29.8s-13.7-5.1-24 3.6l-.5.4 4.5 4.3-6.6-2.5c-8 7.3-8.4 10.7-8.4 10.7s23.8 7.8 35-16.5"/>
  <path fill="#e3e0ff" d="m276.6 188-20.2-11.8v23.4Zm184.8 274.6c-16.5-12.4-23.7-21.1-22.8-42.6 0 0 3.8 5.5 7 8.2s17.6 9 15.8 34.4"/>
  <path fill="#fff" d="M335.5 320.2S321.1 305 313.2 303s-19.7-2-19.7-2 7.8 22 42 19M164.6 433.2l-20.2-11.7v23.4Z"/>
  <g transform="translate(37.4 192.5)">
    <path fill="#cfc7ff" d="m375.6 253.1-12-7.9a3.5 3.5 0 0 1-1.2-2.6L364 226c.1-1.6.5-2.5 2-3l16.1-6.8 3.3-1.4-8-24.8-19.4 4.1c-2.2.5-3.4.3-4.9-1.8-2.9-4.1-6.4-7.9-9.6-11.9a3.1 3.1 0 0 1-.4-2.6c2.1-5.5 4.2-11 6.6-16.4 1.2-2.6.6-4-1.7-5.2a16 16 0 0 1-2.4-1.8l-12-6.4a8.2 8.2 0 0 1-1.5-.3c-4.9-2-4-1.9-6.7 2.2l-9.4 14.3-21.6-1.9-8.5-20.3a83 83 0 0 0-24.7 7.8l4.2 20a2.3 2.3 0 0 1-1 2.9c-4.6 3.4-9 7-13.3 10.7a2.7 2.7 0 0 1-3.4.6l-16.7-6.7c-1.4-.6-2.3-.6-3.3.8a74 74 0 0 0-10 19.9c-.6 1.4.1 2 1.2 2.7l14.6 9.5a3 3 0 0 1 1.6 3.5c-1 6.3-1.5 12.7-2.2 19.5l-19.6 8.2a77.3 77.3 0 0 0 7.7 25l21.1-4.4 11.8 13.3c1.5 1.5 1.8 2.7 1 4.7a446 446 0 0 0-6.5 16c-.5 1-1.3 2.2.4 3l20 10.5c1.5.8 2.4.3 3.2-1l9.6-15c1.2-1.9 2.5-2 4.5-1.7a135.8 135.8 0 0 0 15 1.2c2.1 0 3 .6 3.7 2.5 2.4 6.2 5 12.2 7.4 18.2a72 72 0 0 0 25.1-8l-4.3-19.8c-.4-1.6.1-2.3 1.4-3.3 4-3.3 7.8-6.8 11.9-10a3.4 3.4 0 0 1 2.8-.6c5 1.9 9.8 4 14.7 6 2.7 1.2 3.8 1.6 4.9 1l11.2-21.3c0-1.8-1.2-2.6-4.4-4.7Zm-42.4-7.1a39 39 0 0 1-52.6 16.2 39 39 0 0 1-16.2-52.7 39 39 0 0 1 52.6-16.2 39 39 0 0 1 16.2 52.7Zm201.9-20-4.4-3a1.3 1.3 0 0 1-.4-1l.6-6a1 1 0 0 1 .7-1.1l6-2.5 1.1-.5-2.8-9c-2.6.4-4.9.9-7.2 1.4a1.4 1.4 0 0 1-1.8-.6c-1-1.6-2.3-3-3.5-4.4a1.2 1.2 0 0 1-.2-1l2.5-6a1.2 1.2 0 0 0-.7-1.9 5.9 5.9 0 0 1-.9-.7l-4.4-2.3a3 3 0 0 1-.5-.1c-1.8-.7-1.5-.7-2.5.8l-3.4 5.2-8-.6-3-7.5a30.5 30.5 0 0 0-9.1 2.9l1.5 7.3a.8.8 0 0 1-.4 1 91.3 91.3 0 0 0-4.8 4 1 1 0 0 1-1.3.2l-6.1-2.5a.9.9 0 0 0-1.2.3 27.2 27.2 0 0 0-3.7 7.4c-.2.5 0 .7.4 1 1.8 1 3.6 2.3 5.4 3.4a1 1 0 0 1 .6 1.3l-.8 7.2-7.2 3a28.4 28.4 0 0 0 2.8 9.2l7.8-1.7 4.3 5a1.4 1.4 0 0 1 .3 1.7l-2.3 5.8c-.2.4-.5.8.1 1.2l7.4 3.8c.5.3.8 0 1.1-.4l3.6-5.5c.4-.7.9-.7 1.6-.6a50 50 0 0 0 5.5.4 1.2 1.2 0 0 1 1.4 1l2.7 6.6a27.2 27.2 0 0 0 9.2-3l-1.6-7.2a1 1 0 0 1 .5-1.2l4.4-3.7a1.3 1.3 0 0 1 1-.2l5.4 2.2c1 .4 1.4.6 1.8.4l4.2-7.8c0-.7-.5-1-1.7-1.8Zm-15.5-2.7a14.3 14.3 0 0 1-19.3 6 14.3 14.3 0 0 1-6-19.4 14.3 14.3 0 0 1 19.3-5.9 14.3 14.3 0 0 1 6 19.3Z"/>
    <g fill="#cfc7ff">
      <path d="M677.4 317.8s-9 11.5-14.2 16-10.3 9-17 23.4-6.5 16-8.3 19.7-11.2 18.3-11.9 21.2-16 16.8-20.7 23.9-12.5 17-13.6 22.6h1.4a62.3 62.3 0 0 1 16.3-24c12.1-11.3 11.4-14 23.3-18.5s22.9-21.8 22.9-21.8 15.2-18 17.2-28.8 7-19.7 4.6-33.7Zm-9.3-23.2s-2.3 8.4-6.2 12.9-7 6.9-8.7 12.2-6.8 19-16 24.2-15 25.4-22.3 30.3-9.1 9.2-10.5 20.1-1.2 26.6-14.1 44l-.8-5.3s9.7-14.5 10.4-24.1-1.1-25 2.3-31.2-3.2-9.3 3.4-18.5 5.6-13.2 13.4-20.7c0 0 .6-.3 3.9-7.4s18.4-18 25-21.4 16.4-9 20.2-15Z"/>
      <path d="M635.8 331.5s-9.3 9.8-11 17-2.5 13.5-8.2 22.7-.5 17.1-3.7 22.2-4.8 11.6-6 16.6-12.5 19.6-15.6 27.7-1.6 8.4-1.6 8.4 3.8-10.7 6.4-14 10.9-14.4 13.3-19 6.5-6.8 11.3-14.4 10.6-13.4 13-25.1 10-23 2-42.1Zm-40 108s6.5-13.7 19.9-12.1 20.4 6 32.1-2.4 21-23.9 24.5-26.1c0 0-4-3.5-13.4 2l-21.5 12.7c-5.5 3.1-8.4-.4-13.8 1.3a47.7 47.7 0 0 0-14.2 9.9 16.3 16.3 0 0 1-3.3 2.5l-3.3 2c-1.7 1.1-8 10-8 10Z"/>
      <path d="M591.8 435.9s8.7-16.6 7.7-26-9.3-17.9-7.6-23.2S603 368 600.6 356c0 0-4.2 9.3-6.6 11s-17.4 7.5-17.8 19.5 11.7 17.7 14 21.9 6.5 5 6 7.3-1.6 10.7-4.9 18.4Z"/>
      <path d="m599.6 425.3 10.8-17.2s7.3-14 12.4-26 13-50.6 13-50.6-9.3 9.8-11 17-2.5 13.5-8.2 22.7-.5 17.1-3.7 22.2-4.8 11.6-6 16.6-12.5 19.6-15.6 27.7a23 23 0 0 0-2 7.5c.7-7.5 10.3-20 10.3-20Zm34.4-3.7c-6-.2-11-1.8-19.1 1.7a58.8 58.8 0 0 0-13.3 8s-4.4 4.8-6.3 7.4l-.5.6 1 .2s6.5-13.7 19.9-12.1 20.4 6 32.1-2.4 21-23.9 24.5-26c0 0-11.5 5.3-19.2 10.6s-13 12.2-19 12Z"/>
      <path d="M594 367c-2.4 1.8-17.4 7.5-17.8 19.5s11.7 17.7 14 21.9 6.5 5 6 7.3-1.6 10.7-4.9 18.4l.3.8a106.2 106.2 0 0 0 4.6-11.2c1.9-5.8 1.5-8.5.7-13.7s-10.4-17.8-12.1-23.7 8.9-12.4 11.8-16 4-14.3 4-14.3-4.2 9.3-6.6 11Z"/>
    </g>
    <circle cx="183.4" cy="183.4" r="183.4" fill="#2578fa" transform="rotate(-45 542.5 -8.3)"/>
    <circle cx="167.2" cy="167.2" r="167.2" fill="url(#targetRadialGradientA)" transform="rotate(-45 554 -35.8)"/>
    <circle cx="140.6" cy="140.6" r="140.6" fill="#fcf5eb" transform="rotate(-45 572.7 -81.3)"/>
    <circle cx="105.7" cy="105.7" r="105.7" fill="url(#targetRadialGradientB)" transform="rotate(-45 597.4 -140.9)"/>
    <circle cx="75.1" cy="75.1" r="75.1" fill="#fcf5eb" transform="rotate(-45 619.1 -193.2)"/>
    <path fill="url(#targetRadialGradientC)" d="M1119.4 1122.5a19.1 19.1 0 1 1-19.2-19.2 19.1 19.1 0 0 1 19.2 19.2Z" transform="translate(-676.1 -741.3)"/>
    <path fill="#7d00ff" d="m541.6 286.2-.7-12.5 42.1-32.9-2.2 18-41.2 32.3Z"/>
    <path fill="#5800b3" d="m544.7 290.4 12 3.6 42-33-18-2.1-41.2 32.3Z"/>
    <path fill="#5800b3" d="M422.6 382.8a2.8 2.8 0 0 0 4 .5l118.6-92.8-3.5-4.4-118.6 92.7a2.8 2.8 0 0 0-.5 4Z"/>
    <path fill="#f7a491" d="M618.6 417.2c0 1.2.5 2.2 1 2.2s1-1 1-2.2-.4-2.1-1-2.1-1 1-1 2.1Zm-9.3 139.6a61.4 61.4 0 0 0 .3-8h6.5l-1.2 8.3.1 1.4v4.4h-14.2a63.9 63.9 0 0 0 7.3-4 2.9 2.9 0 0 0 1.2-2.1Zm27.7-1.1-2-5.4h5l.4 5.8 1.2 3.6 1.3 4.2s-4.2 1-6.4-.2l.2-4.2Z"/>
    <path fill="#2578fa" d="M611.3 438.2c1.7-2.4 8.8-9.2 9.6-9.1 2.3 0 9.8 0 11.3.7l-.1 13c-.3 1-5.4 18-5.1 21.6a10.4 10.4 0 0 1-15.3-.7 85.4 85.4 0 0 0-.6-9.8c-1-7.3-4-10 .2-15.7Z"/>
    <path fill="#f7a491" d="M623.2 421.8a38 38 0 0 0 .2 6.6c.4 1.8 1 1.9-2.7 2.4l-2.8.6s.4-2.7.4-3.8a93 93 0 0 0-.4-7.5Z"/>
    <path fill="#f47458" d="M620.4 424.2a6.6 6.6 0 0 1-2.1.7l-.4-4.8 5 1.6a6.6 6.6 0 0 1-2.5 2.5Z"/>
    <path fill="#7d00ff" d="M636.7 559.5a7 7 0 0 0 4.9 0l.3.8 1 3.6s-4.2 1-6.4-.2Zm-21.5 4.5h-14.8c-.5 0-.7-.5-.5-.8.4-.6 2.1-1 4-1.9 3.5.4 10.6-2 11.1-2.8.3 1.6.5 5.4.2 5.5Z"/>
    <path fill="#480290" d="m616.3 464.7 8.6 61.5 8 28.4h8.5s-2-22.9-6.3-31c0 0-1.8-21.7-3.7-35-.3-2 1.1-7 .8-8.4a122.8 122.8 0 0 0-5.2-15.8Z"/>
    <path fill="#5800b3" d="m621.6 491.3-2 23.6s2 13.5.7 22.5-3.3 17.2-3.3 17.2h-7.9l-1.5-44.7s-3-24.2-2-30.8 6.1-15.4 6.1-15.4l12.4.6s3.4 12 2.8 16c-.4 3-5.3 11-5.3 11Zm12.2-40.6c9.4-2.8 6.9-11 6.8-10.7 0-.3 1-1.3 1.4-2.2 1.8-3.7-.6-8.2-3.4-9.7 1.9-4.7 0-9.2-3.4-11.1a13.8 13.8 0 0 1-4.3-3.9c-2.6-3.4-7.4-7-13-5.8-5.7 1.5 1.9 4.7 1.1 10.1-.4 2.8.7 2.4 2.4 4.6-2.4 4.3-1 11.4 2.7 14.7-1.8 7.7.2 17 9.7 14Z"/>
    <path fill="#4d029b" d="M626.9 413c1 4.6-5 7.9-9.7 8-3 0-4.5-.2-5-3.5-.8-5.3 1.4-8.5 4.4-9.8 4-1.7 9.4 1.5 10.3 5.3Z"/>
    <path fill="#f7a491" d="M619.9 410a6.2 6.2 0 0 1 3.2 2.7c1.1 2.1.6 8.9-4 11.1s-6.8-2.8-6.5-6.5 1.7-8.6 7.3-7.4Z"/>
    <path fill="#4c0398" d="M624.7 417.8c.7-3.5.5-6-2-7.4s-4.6-2.5-6.8-.2l-.5.3s4.2 1.1 4.4 3.3 2.5 4.9 2.1 6-.7 3.3-.7 3.3l.9-.8s2-1 2.6-4.5Z"/>
    <path fill="#f7a491" d="M620.4 416.5c-.3 1 0 2 .6 2.2s1.5-.4 1.8-1.4.1-1.9-.5-2.1-1.5.3-1.9 1.3Zm-35.5 28c-.3-.7 3-1.3 3.2-2s-4.2-.7-4.3-1.3c-.3-1 4.7-.2 4.6-.7s-5.2-1.7-4.7-2.5 5.2 1.7 5.3 1.1-4.5-2-4.4-3.4c0-.7 7.6 3.5 8.5 3.2s-1-3.7-.2-4.2 2.7 6.7 3.2 7 10.7 6 14.3 7l1.8-4c2 1.4 3.6 2 5.7 3.4-1.5 3.8-3.7 8-4.8 8.5-3.2 1.5-15.8-9-18.3-10.7s-3.9-1.2-5.6-1.8-4.1 1-4.3.4Z"/>
    <path fill="#0077b5" d="M622.7 437.2c1 4-4.2 12.8-4.2 12.8s-7.4-3.4-8.7-5l5.3-9a4.5 4.5 0 0 1 4.8-2.3c1.1.1 2.8 3.5 2.8 3.5Z"/>
    <path fill="#ffb300" d="M250 499.5h42.5L282.4 564h4.4L344 199.6h-4.4l-.9 5.5h-42.6l.8-5.5h-4.4L235.3 564h4.4Zm73-193.8-7 44.7h-42.6l7-44.7Zm-42-3.7 7-44.8h42.6l-7 44.8Zm34.4 52.1-7 44.7h-42.6l7-44.7Zm-7.6 48.5-7 44.7h-42.6l7-44.7Zm30.4-193.8-7 44.7h-42.6l7-44.7Zm-87.6 287 7-44.8h42.6l-7 44.7Z"/>
    <path fill="#f79c8d" d="m431.3 139.4-1 3 5.8 1.1c0-1 0-1.7.2-2.3.4-4 2.3-5 3.2-7.2s4.7-3.6 4.2-4.3-3.9 2.3-4.7 2 3-5 2.5-5.5c-.8-1.1-4.4 4.7-4.9 4.3s3-6.7 1.7-6.8-3 6.7-3.6 6.4 2-6.2.6-7.1c-.7-.5-3.4 10.6-4.5 11.2s-2.8-3.7-4-3.4 4.7 8 4.5 8.6Zm-53-23.4-.3 3-5.7-1.3.8-2.2c1.2-3.7 0-5.5 0-7.9s-2.8-5.2-2-5.7 2.5 3.7 3.4 3.8-.7-5.7 0-6c1.2-.7 2 6.1 2.7 5.9s0-7.4 1.3-6.9-.2 7.3.6 7.4.8-6.6 2.4-6.8c.9-.1-1.3 11-.5 12s4-2.2 5-1.4-7.6 5.3-7.7 6Z"/>
    <path fill="#7d00ff" d="M436.8 141.8s-6.8-1.6-6.9-1c-1.4 11.9-2 16.2-2.3 16.3-.8.4-11.7-9.5-13.7-10.2a8.1 8.1 0 0 0-2.9-.2h-2.8v2.2c2.6 2.4 8.6 37.9 9 37.8.6 0 12.4 3 12.2 2 0-.2-8-6.7-10.2-16-.8-3.2-1.2-6.6-1.6-9.6a54.4 54.4 0 0 0 14.5 5.7c5-2.1 4.7-27 4.7-27Z"/>
    <path fill="#f7a491" d="M457 204.8s11 8.6 11.4 10.1c.5 2.2 10.5-.6 8.1-1a27 27 0 0 1-2.5-.7 271 271 0 0 1-10.5-12.2Z"/>
    <path fill="#7d00ff" d="m481.2 213.8-7-.6a10 10 0 0 1-5.8 1.8 9 9 0 0 0-.3 3.8c0 .3 0 1.4.4 1.4 1.3-.1 4.8-1 8.7-1.7 0 0 5.3-1.2 8.3-3s-4.3-1.7-4.3-1.7Z"/>
    <path fill="#5800b3" d="M408 183.3a48 48 0 0 0 16.8-.7c10.3-2.4 21.7-4.7 25-2.7 2.7 1.5 19.4 26.8 19.4 26.8l-6.5 4.7-18.4-20.6s-23.5 8.7-28.8 7.7c-12-2.2-12.2-11.8-7.6-15.2Z"/>
    <path fill="#f7a491" d="M433 221.8s-.5 13.3-.8 15.5 5.7 9 5 6.6a28 28 0 0 1-.7-2.5c0-.8 2.2-16 2.2-16Z"/>
    <path fill="#7d00ff" d="m440.9 248.8-4.4-7.2a10 10 0 0 1-4.3-4.3 9 9 0 0 0-3.5 1.6c-.3.2-2.2 1.6-2.1 2 .5 1.1 3.2 3.8 6.1 6.6a78.6 78.6 0 0 0 7.2 5.2c3 1.8 1-4 1-4Z"/>
    <path fill="#5800b3" d="M446 195.7c-2.8-3.8-25.4-7.3-25.4-7.3l-6.3-12.2-14 8.6s1.4 11.1 2.4 14.1c1.4 4 10.8 4.2 16.6 4.1 5.2 0 14.9 1 14.9 1l-3.3 28.8s6.4 1.5 8.2 1.2c.2 0 10.4-33.7 7-38.3Z"/>
    <path fill="#2578fa" d="m408.3 146.8-8 .4h-.2c-.6.2 0 23.2.6 31.7s1.7 12.2 1.7 12.2 10.7-1.9 14-3.2c1.3-.5 4.6-4.6 4.6-4.6a34.6 34.6 0 0 1-5-11.9c-1.4-5.6-3-15.7-3.9-17.8a30 30 0 0 0-3.8-6.8Z"/>
    <path fill="#f7a491" d="m400.6 140.3-.2 7s5 8.7 7.7 7.5c2.2-1 .2-7.7.2-7.7l-.9-3.3a12.8 12.8 0 0 1-.6-3.6c0-2.4-6.2 0-6.2 0Z"/>
    <path fill="#f47458" d="M406.8 140.2c0-2.4-6.2 0-6.2 0v.7a3.5 3.5 0 0 0 .7.8 8.6 8.6 0 0 0 6 1.8 12 12 0 0 1-.5-3.3Z"/>
    <path fill="#5800b3" d="M406.7 124.4s2.6 3.9 2.8 7.2a17.1 17.1 0 0 1-.5 5.5l-8.4-10Z"/>
    <path fill="#f48c7f" d="M410.4 131c0 1-.4 2-1 2.1s-1.4-.8-1.5-2 .4-2 1-2.1 1.3.8 1.5 2Z"/>
    <path fill="#f7a491" d="M398 128.8c-.2 0-.2 9.5 2.6 11.8s7.6 2.4 9 .2c1.6-2.5 0-12.7-4-14.8s-7.7 2.8-7.7 2.8Z"/>
    <path fill="#5800b3" d="M397.2 122.8a15.4 15.4 0 0 0-4.6 6.6c-1.7 4 1.8 8.2 4.7 10s3.2 3.6 3.2 3.6l.1-1.2a3.1 3.1 0 0 0 0-1.2 5.4 5.4 0 0 0-.4-1c-.3-.5-1-2.4-1.4-2.8-.8-1.3-1-1.6-.6-2.8.3-1 0-3 .5-4.5l4-.9a8.3 8.3 0 0 0 3.6-2c3.6-4.2-3.5-8.8-9-3.8Z"/>
    <path fill="#f7a491" d="M399.2 135c.5 1.1.4 2.2-.3 2.5s-1.5-.4-2-1.4-.3-2.2.3-2.5 1.5.4 2 1.4Z"/>
    <path fill="#7d00ff" d="M400.4 147.2s-7.8-.4-9.9-1.3c-1.2-.5-11.2-8.6-11.2-8.6l.1-21.7-7-.5s-3.7 24-2.5 26.6c1.4 2.7 16 13.8 19 18.6 1.7 2.8 5.2 40.7 5.7 41 3.8 2 15.6 4 15.3 2.8a440.5 440.5 0 0 1-9.5-56.9Zm197.4 74.6a1 1 0 0 0 .6-1.3l-1.5-2.4c-1-1.7-1-1.8-1-2 .2-.4 1.1-.2 1.4-.1a11 11 0 0 0 2.1.8c1.5.1 2.6-1 2-2.4l-2-3.9 4.7 1a.6.6 0 0 0 .7-1l-2.4-5.6c-.2-.3-1-1.6-.7-1.9.3-.2 1.4.1 1.6.1l6.4.8a.7.7 0 0 0 .6-1c-3.1-4.5-2.6-4.9-3.7-5.5a.4.4 0 0 0-.5.3c-.1.7 0 .8 1.1 3l1 1.5c-5.5-.7-6.8-1-7.6.2-.5.8-.2 1 2.6 7.5l-5-1a.7.7 0 0 0-.8 1c2.2 4.7 2.4 4.7 2.5 5.2h-.1c-.8 0-2-1.1-3.5-1a2.2 2.2 0 0 0-2 2.5c0 .8.4 1 1.8 3.6a18.9 18.9 0 0 0-4.2 1.4 3 3 0 0 0-1.4 1.1.8.8 0 0 0 .6 1.2c1.6 0 2.4-1.3 6.7-2Z"/>
    <path fill="#27ddf8" d="M635.1 267.7a.9.9 0 0 0 .8 1 19.8 19.8 0 0 0 7 .2c1.1-.2.7-2-.5-2a24 24 0 0 1-5.6.2 19.2 19.2 0 0 1 .6-4.1 1 1 0 0 0-.8-1.2l-7.2.4a.3.3 0 0 0 0-.1c-.1-.6.3-2.7.3-3.6 0-1-1.5-1.4-2.3-1.5-1.7-.2-3.6 1-5.3.4-1.6-.7.2-3.2-1-5.1-1-1.5-2.8-1-5.5-.6a2 2 0 0 0-1.6 1 .5.5 0 0 0 0 .5c.9.7 1.8.4 4.3 0 .3 0 .8-.2 1.1 0 1 .8-.4 2.9.7 4.7.9 1.4 2.6 1.6 4 1.4 1.2 0 2.6-.8 3.7-.3l-.1 3a1.7 1.7 0 0 0 1.7 1.9 29 29 0 0 0 3.6-.2h2.4a21.8 21.8 0 0 0-.3 4Zm-66.4-63c-6.4-5.3-9.7-.5-7.9 1.7a1.8 1.8 0 0 0 3 0c.3-.5-.2-1.3-.8-1.1-.5.1-.6-.5-.1-.7.7-.3 1.6.2 2.2.6 1.4.7 3.3 1.7 3.6 3.5.3 2.7-2.4 5.6-6.5 4-5.9-2.3-5.6-11.9.7-13.5a8.8 8.8 0 0 1 9 3.4c.5.5 1.2-.1 1-.6-1.7-4.2-7-5.8-11-4.4-4 1.5-6.1 5.8-5.5 10 .6 4.4 4.4 8 9 7.6 5-.5 7.8-6.8 3.3-10.5Z"/>
    <path fill="#7d00ff" d="M632.2 282.4c-1-.8-3.2-1.2-4 .2a1.2 1.2 0 0 0 .7 1.8c.8.2 1.5-.2 2 .5a1.6 1.6 0 0 1-.2 2c-1.4 1.6-4.4 1.1-6 .2a4 4 0 0 1-.3-7 9 9 0 0 1 3-1c.5 0 .8-1 .2-1.3-2.3-1.1-5 .4-6.4 2.3a6.5 6.5 0 0 0 0 7 8.3 8.3 0 0 0 7 3.4c5.5 0 7.4-5.8 4-8.1Z"/>
    <path fill="#f8a492" d="M523.4 452.3a4.5 4.5 0 0 1-.4 1.2 44.2 44.2 0 0 1-4.6 6l-2.5-5.5 1-4.3c2.5.6 4.8 1 6.5 2.6Z"/>
    <path fill="#7d00ff" d="M509.2 447.4s13.9 6 14.3 5.9c.3 0 5.7-9.1 5.7-17.6 0-4-4-8.6-8.6-7.7-2.2.5-2.2 1.1-5.6 6s-5.8 13.4-5.8 13.4Z"/>
    <path fill="#f7a491" d="m497.4 554.4.3 5.5a29.8 29.8 0 0 1 .6 3c0 2.4-11.2-2-8.7-3 .2-.1 1.4-.9 1.5-1.7l.4-3.7Z"/>
    <path fill="#7d00ff" d="M489.6 559.8s2.7.8 4 1 3.1-1.4 4-1c1.1.5 1 4.5 1 4.5s-14 1.2-18 0c-1.6-.5 3.7-2.8 9-4.5Z"/>
    <path fill="#f7a491" d="m520.3 554.4.3 5.5a29.8 29.8 0 0 1 .6 3c0 2.4-11.2-2-8.7-3 .3-.1 1.8-1.4 1.9-2.2v-3.2Z"/>
    <path fill="#7d00ff" d="M512.6 559.8s2.6.8 4 1 3-1.4 4-1c1 .5 1.1 4.5 1.1 4.5s-14.2 1.4-18.2 0c-1.5-.6 3.7-2.8 9-4.5Z"/>
    <path fill="#f7a491" d="m519.2 419.1 1.3 8s-4.8 4-7.6 3.1c-2.4-.7-.8-3.8-.8-3.8s1.3-4.2.9-6.5 6.2-.8 6.2-.8Z"/>
    <path fill="#fe875e" d="M518.3 421.5a19.8 19.8 0 0 1-5.4 1.6 10.6 10.6 0 0 0 0-3.2c0-1 1.2-1.3 2.7-1.2 2 .1 3.6.4 3.6.4l.3 1.6a4 4 0 0 1-1.2.8Z"/>
    <path fill="#f7a491" d="M525.4 409.9c.2 0-2 9-5.2 10.5s-8.2.7-9-1.7c-1.1-2.7 2.6-11.8 7.2-13s7 4.2 7 4.2Z"/>
    <path fill="#5800b3" d="M521.6 401.6a10.3 10.3 0 0 1 4.2 4.7c1.2.5 2.7 1.8 3.4 5.2.9 4.2-2.2 7.4-5.5 8.3s-3.8 3.2-3.8 3.2l-.4-2.4a9.3 9.3 0 0 1 1.8-3c1.1-1-.5-2.5-.6-3.8-.2-.9.5-2.7.4-4.3 0 0-1.8-2.7-3.7-3.4-3-1.2.8-6.4 4.2-4.5Z"/>
    <path fill="#f7a491" d="M520.2 415.4c-.4 1-.3 2 .4 2.3s1.5-.4 2-1.5.2-2-.5-2.3-1.5.5-2 1.5Z"/>
    <path fill="#f8a492" d="m508 455.5-19-3s2.1-5.5 3-5.5 14.3 6 14.3 6l1 2.1Z"/>
    <path fill="#46038b" d="M517.8 468.6s1.9 9.2 1 16.1-.8 31.7-.8 31.7l3 39.6-7 .1-8.2-38.5-2.7-27.8 9.9-22Z"/>
    <path fill="#5800b3" d="M515.9 468.2s1.2 8.2-.3 11.8-13.3 39.2-13.4 42.1-4.1 35-4.1 35l-8.1-.2-1.8-35.7 3.7-44.8 3.6-11.3Z"/>
    <path fill="#f7a491" d="M520.5 427.2a7.3 7.3 0 0 1-3.9 1.1 12.9 12.9 0 0 1-4.5-1.9l.4-1.2 5-.6c.2 0 3 2.6 3 2.6Z"/>
    <path fill="#f8a492" d="M499.1 446.7s-7.2 6.8-10.4 5.7-4.6-5.2 3.3-11c7-5.2 7.1 5.3 7.1 5.3Z"/>
    <path fill="#7d00ff" d="M494.2 455.1c1.1-5.8 8.9-24 9.5-27.3.3-1.6 4.5-1.6 8.4-1.4 4.2.2 8.4.8 8.4.8s3.7.6 5.4 2.1 2 5.8-.3 13.8c-1.9 6.4-4.2 9.9-5.3 14.5l-.7 5c-.4 6.8 0 16 0 16s-20.3 4.2-27.9-2.2c0 0 1.4-15.3 2.5-21.3Z"/>
    <path fill="#6b05d5" d="M489 442.6s8 6.6 8.5 6.6c.3 0 11.3-8.2 13.9-14.8 1.4-3.7-1.6-7.9-5-7.9-2.3 0-3.3.7-8 4.6s-9.3 11.5-9.3 11.5Z"/>
  </g>
</svg>