<svg xmlns="http://www.w3.org/2000/svg" viewBox="0 0 24 24" width="24" height="24">
  <path d="M8.3 0c.5 0 .9.4.9.9v1c.9 0 1.8-.1 2.8-.1s1.9 0 2.8.1v-1c0-.5.4-.9.9-.9s.9.4.9.9v1.2c4.2.6 5.8 2.5 6.3 7.1 0 .3.1.6.1.9v2.7C23.1 22 21.1 24 12 24S.9 22 .9 12.9v-2.7c0-.3 0-.6.1-.9.5-4.6 2.1-6.5 6.3-7.1V.9c.1-.5.5-.9 1-.9zm-.9 4c-1 .1-1.9.4-2.7 1-.9.6-1.5 1.7-1.8 4.2H21c-.3-2.5-.9-3.6-1.8-4.3-.8-.5-1.7-.9-2.7-1v.6c0 .5-.4.9-.9.9s-.9-.4-.9-.9v-.7c-.7-.1-1.6-.1-2.7-.1s-2 0-2.8.1v.8c0 .5-.4.9-.9.9s-.9-.4-.9-.9V4zm13.8 8.9v-1.8H2.8v1.8c0 1.7.1 3.5.4 5.2.1.9.6 1.8 1.2 2.5.7.6 1.6 1 2.5 1.2 1.7.3 3.4.4 5.2.4 1.7 0 3.5-.1 5.2-.4.9-.1 1.8-.6 2.5-1.2.6-.7 1-1.6 1.2-2.5.1-1.7.3-3.4.2-5.2z"/>
  <path d="m15 19.1 3.7-3.7c.4-.4.4-.9 0-1.3s-.9-.4-1.3 0l-3 3-.7-.7c-.4-.4-.9-.4-1.3 0s-.4.9 0 1.3l1.4 1.4c.2.4.8.4 1.2 0zm-9.5-4.3c0-.5.4-.9.9-.9h2.8c.5 0 .9.4.9.9s-.4.9-.9.9H6.5c-.5 0-1-.4-1-.9zm0 3.7c0-.5.4-.9.9-.9h2.8c.5 0 .9.4.9.9s-.4.9-.9.9H6.5c-.5 0-1-.4-1-.9z"/>
</svg>