<svg xmlns="http://www.w3.org/2000/svg" viewBox="0 0 24 24" width="18" height="18">
  <path d="M8 23c-1.8 0-3.6-.7-5-2-2.7-2.7-2.7-7.2 0-9.9l8.6-8.6c1-1 2.2-1.5 3.6-1.5 1.3 0 2.6.5 3.5 1.5 2 1.9 2 5.1 0 7.1l-8.6 8.6c-1.2 1.2-3.1 1.2-4.2 0-.6-.6-.9-1.4-.9-2.2s.3-1.6.9-2.1l8.5-8.5c.4-.4 1-.4 1.4 0 .4.4.4 1 0 1.4l-8.5 8.5c-.2.2-.3.4-.3.7s.1.5.3.7c.4.4 1 .4 1.4 0l8.6-8.6c1.2-1.2 1.2-3.1 0-4.2-.6-.6-1.3-.9-2.1-.9s-1.6.3-2.1.9l-8.6 8.6c-2 2-2 5.1 0 7.1s5.1 2 7.1 0l9.2-9.2c.4-.4 1-.4 1.4 0s.4 1 0 1.4L13 20.9C11.6 22.3 9.8 23 8 23z"/>
</svg>