<svg xmlns="http://www.w3.org/2000/svg" viewBox="0 0 512 512" height="18" width="18">
  <path d="M213.3 32.4c17.4 2.9 29.2 19.4 26.3 36.8l-9.8 58.8h95.1l11.5-69.3c2.9-17.4 19.4-29.2 36.8-26.3s29.2 19.4 26.3 36.8l-9.7 58.8H448c17.7 0 32 14.3 32 32s-14.3 32-32 32h-68.9l-21.3 127.9H416c17.7 0 32 14.3 32 32s-14.3 32-32 32h-68.9l-11.5 69.3c-2.9 17.4-19.4 29.2-36.8 26.3-17.4-2.9-29.2-19.4-26.3-36.8l9.8-58.7h-95.2l-11.5 69.3c-2.9 17.4-19.4 29.2-36.8 26.3-17.4-2.9-29.2-19.4-26.3-36.8l9.7-58.9H64c-17.7 0-32-14.3-32-32s14.3-32 32-32h68.9L154.2 192H96c-17.7 0-32-14.3-32-32s14.3-32 32-32h68.9l11.5-69.3c2.9-17.4 19.4-29.2 36.8-26.3h.1zm5.8 159.6-21.3 127.9h95.1L314.2 192h-95.1z"/>
</svg>