<svg xmlns="http://www.w3.org/2000/svg" viewBox="0 0 24 24" width="24" height="24">
  <path d="m8.4 12.3 2.9 2.9c.1.1.3.2.5.2s.4-.1.5-.2l2.9-2.9c.3-.3.3-.8 0-1.1-.3-.3-.8-.3-1.1 0l-1.6 1.6V2.6c0-.4-.3-.7-.8-.7s-.8.3-.8.7v10.3l-1.6-1.6c-.3-.3-.8-.3-1.1 0-.1.3-.1.7.2 1z"/>
  <path d="M16.4 6.5c-.4 0-.8.3-.8.7 0 .4.3.8.7.8 2.9.3 4.2.9 4.2 6.3 0 6.4-1.5 6.4-8.5 6.4s-8.5 0-8.5-6.4c0-5.3 1.3-6 4.2-6.3.4 0 .7-.4.7-.8s-.4-.7-.8-.7C3.4 6.8 2 8.7 2 14.2c0 7.9 3.1 7.9 10 7.9s10 0 10-7.9c0-5.5-1.4-7.4-5.6-7.7z"/>
</svg>