<svg xmlns="http://www.w3.org/2000/svg" viewBox="0 0 135 135">
  <path d="M67.5 12.17c18.02 0 20.16.06 27.28.4 18.3.82 26.84 9.5 27.67 27.66.33 7.11.39 9.25.39 27.27 0 18.04-.07 20.16-.4 27.28-.83 18.14-9.35 26.84-27.66 27.67-7.12.33-9.24.4-27.28.4-18.02 0-20.16-.07-27.28-.4-18.33-.84-26.83-9.56-27.67-27.67-.32-7.12-.39-9.25-.39-27.28 0-18.02.07-20.16.4-27.28.83-18.15 9.35-26.83 27.66-27.67 7.12-.32 9.26-.38 27.28-.38ZM67.5 0C49.17 0 46.87.08 39.67.4 15.16 1.54 1.54 15.14.41 39.68.08 46.87 0 49.17 0 67.5s.08 20.63.4 27.83c1.13 24.52 14.73 38.14 39.27 39.26 7.2.33 9.5.41 27.83.41s20.63-.08 27.83-.4c24.5-1.13 38.15-14.73 39.26-39.27.33-7.2.41-9.5.41-27.83s-.08-20.63-.4-27.83C133.5 15.18 119.87 1.54 95.33.41 88.14.08 85.84 0 67.5 0Zm0 32.84a34.66 34.66 0 1 0 0 69.32 34.66 34.66 0 0 0 0-69.32Zm0 57.16a22.5 22.5 0 1 1 0-45 22.5 22.5 0 0 1 0 45Zm36.04-66.63a8.1 8.1 0 1 0-.01 16.2 8.1 8.1 0 0 0 0-16.2Zm0 0"/>
</svg>