<svg xmlns="http://www.w3.org/2000/svg" viewBox="0 0 135 135">
  <path d="M0 67.5C0 30.223 30.223 0 67.5 0S135 30.223 135 67.5 104.777 135 67.5 135 0 104.777 0 67.5Zm110.625 4.551c0-14.731-8.352-21.856-20.016-21.856-11.671 0-16.586 9.086-16.586 9.086v-7.406H57.688v55h16.335V78c0-7.734 3.563-12.336 10.379-12.336 6.263 0 9.273 4.422 9.273 12.34v28.871h16.95ZM48.269 34.523c0-5.601-4.507-10.148-10.07-10.148-5.566 0-10.074 4.543-10.074 10.148 0 5.606 4.508 10.149 10.074 10.149 5.563 0 10.07-4.543 10.07-10.149Zm-1.472 72.352v-55H29.766v55Z"/>
</svg>