<svg xmlns="http://www.w3.org/2000/svg" viewBox="0 0 24 24">
  <path d="m8.8 19-1.2 1.2c-1.1 1-2.8 1-3.8 0s-1-2.7 0-3.7l4.5-4.4c.9-.9 2.7-2.3 3.9-1 .6.6 1.5.6 2.1.1.6-.6.6-1.5.1-2.1l-.1-.1C12.1 6.9 9 7.3 6.2 10l-4.5 4.4c-2.2 2.2-2.2 5.7 0 7.9s5.8 2.2 8 0l1.2-1.2c.6-.6.6-1.5 0-2.1-.6-.5-1.5-.5-2.1 0zM22.3 1.8C20-.5 16.7-.6 14.6 1.5L13.1 3c-.6.6-.6 1.5 0 2.1.6.6 1.5.6 2.1 0l1.5-1.5c1.1-1.1 2.6-.6 3.5.3 1 1 1 2.7 0 3.7l-4.8 4.7c-2.2 2.2-3.2 1.1-3.6.7-.6-.6-1.5-.6-2.1 0-.6.6-.6 1.5 0 2.1.9.9 2.1 1.5 3.3 1.5 1.5 0 3-.7 4.5-2.2l4.8-4.7c2.2-2.1 2.3-5.7 0-7.9.1 0 0 0 0 0z"/>
</svg>