<svg xmlns="http://www.w3.org/2000/svg" viewBox="0 0 135 135">
  <path d="M120.82 40.16c.08 1.19.08 2.37.08 3.56 0 36.33-27.65 78.22-78.22 78.22v-.02A77.86 77.86 0 0 1 .54 109.59a55.2 55.2 0 0 0 40.69-11.4 27.53 27.53 0 0 1-25.68-19.08c4.12.8 8.36.63 12.4-.47A27.5 27.5 0 0 1 5.92 51.69v-.35a27.3 27.3 0 0 0 12.47 3.44 27.53 27.53 0 0 1-8.5-36.7A78.02 78.02 0 0 0 66.53 46.8a27.51 27.51 0 0 1 46.85-25.08 55.2 55.2 0 0 0 17.46-6.67 27.6 27.6 0 0 1-12.09 15.2 54.77 54.77 0 0 0 15.79-4.32 55.8 55.8 0 0 1-13.72 14.23Zm0 0"/>
</svg>